<?xml version="1.0" encoding="UTF-8"?>
<svg version="1.1" xmlns="http://www.w3.org/2000/svg" width="619" height="591">
<path d="M0 0 C2.47448969 0.00315841 4.94777585 -0.0204134 7.42211914 -0.0456543 C23.89575527 -0.1139686 39.41002211 2.25004334 55.11157227 7.31567383 C56.23241211 7.65856445 57.35325195 8.00145508 58.50805664 8.35473633 C63.3373715 9.87276931 67.19609318 11.13189909 71.17407227 14.31567383 C72.86314969 15.12783406 74.57370003 15.89627394 76.29907227 16.62817383 C81.80416277 19.07734716 87.34270474 21.67723655 92.17407227 25.31567383 C92.50407227 26.30567383 92.83407227 27.29567383 93.17407227 28.31567383 C95.0623763 28.89474512 95.0623763 28.89474512 97.17407227 29.31567383 C102.68457342 32.61936291 107.52911276 37.23477263 112.42407227 41.37817383 C113.02654785 41.88453369 113.62902344 42.39089355 114.24975586 42.91259766 C117.61827598 45.79728603 120.61197693 48.65644361 123.17407227 52.31567383 C123.17407227 52.97567383 123.17407227 53.63567383 123.17407227 54.31567383 C123.79282227 54.54254883 124.41157227 54.76942383 125.04907227 55.00317383 C127.78817435 56.69497218 128.22431698 58.30811544 129.17407227 61.31567383 C129.83407227 61.31567383 130.49407227 61.31567383 131.17407227 61.31567383 C132.29907227 67.06567383 132.29907227 67.06567383 131.17407227 69.31567383 C130.51407227 69.31567383 129.85407227 69.31567383 129.17407227 69.31567383 C128.88532227 70.05817383 128.59657227 70.80067383 128.29907227 71.56567383 C127.35104582 73.8830718 126.32561315 76.09484497 125.17407227 78.31567383 C124.51407227 78.31567383 123.85407227 78.31567383 123.17407227 78.31567383 C123.05676758 79.05430664 122.93946289 79.79293945 122.81860352 80.55395508 C122.17661532 83.30477723 121.31574401 85.10356535 119.86157227 87.50317383 C117.52826209 91.54444015 115.74434692 95.62118491 114.08032227 99.97583008 C113.30715399 101.97207059 112.43749022 103.9304883 111.54907227 105.87817383 C110.1834842 109.292144 109.3834166 112.50637136 108.70141602 116.10473633 C108.17407227 118.31567383 108.17407227 118.31567383 107.21313477 120.49536133 C105.72971142 124.52179613 105.20239876 128.57706823 104.61157227 132.81567383 C104.48226318 133.72534912 104.3529541 134.63502441 104.21972656 135.57226562 C102.89574287 145.45682459 102.46673897 155.35491394 102.17407227 165.31567383 C99.08028924 166.86256534 95.81288588 166.4695476 92.41671753 166.47389221 C91.60646531 166.47883019 90.7962131 166.48376817 89.96140778 166.48885578 C87.23135408 166.50428159 84.50132397 166.51260511 81.77124023 166.52099609 C79.82022899 166.53057063 77.86921983 166.54058045 75.91821289 166.55099487 C70.60859665 166.57809605 65.29897148 166.59907734 59.98932409 166.61899686 C54.4452688 166.64082433 48.90124121 166.66822883 43.35720825 166.6950531 C32.85291409 166.74502389 22.34860459 166.78994641 11.84428036 166.83307546 C-0.112026 166.88241041 -12.06830456 166.93734239 -24.02458405 166.99275506 C-48.62500603 167.10664242 -73.22545466 167.2134667 -97.82592773 167.31567383 C-99.10065555 171.58172349 -98.42268012 175.26112366 -97.63842773 179.56567383 C-97.50259277 180.33057129 -97.36675781 181.09546875 -97.22680664 181.88354492 C-96.19218424 187.30227838 -94.51063004 191.48320967 -91.82592773 196.31567383 C-91.26941281 198.67858145 -91.02823279 200.88801319 -90.82592773 203.31567383 C-90.16592773 203.31567383 -89.50592773 203.31567383 -88.82592773 203.31567383 C-88.15473224 204.77192833 -87.48910966 206.2307525 -86.82592773 207.69067383 C-86.45467773 208.5027832 -86.08342773 209.31489258 -85.70092773 210.15161133 C-84.82592773 212.31567383 -84.82592773 212.31567383 -84.82592773 214.31567383 C-84.16592773 214.31567383 -83.50592773 214.31567383 -82.82592773 214.31567383 C-78.82592773 221.06567383 -78.82592773 221.06567383 -78.82592773 223.31567383 C-78.22780273 223.57477539 -77.62967773 223.83387695 -77.01342773 224.10083008 C-74.64405318 225.41667916 -73.50747898 226.64685574 -71.82592773 228.75317383 C-64.8437482 236.96134635 -57.14551237 244.13218323 -47.59155273 249.19458008 C-47.00889648 249.56454102 -46.42624023 249.93450195 -45.82592773 250.31567383 C-45.82592773 250.97567383 -45.82592773 251.63567383 -45.82592773 252.31567383 C-44.62967773 252.70754883 -43.43342773 253.09942383 -42.20092773 253.50317383 C-39.31147145 254.45728224 -36.45324151 255.45526176 -33.60327148 256.52270508 C-32.45987305 256.94938477 -31.31647461 257.37606445 -30.13842773 257.81567383 C-29.08268555 258.21786133 -28.02694336 258.62004883 -26.93920898 259.03442383 C-16.03057921 262.66151082 -5.33492327 263.81788162 6.11157227 263.69067383 C7.42826904 263.68124756 8.74496582 263.67182129 10.1015625 263.66210938 C23.12817805 263.45948928 34.0974969 261.47818489 46.20922852 256.52270508 C50.14155085 254.92179915 54.13405067 253.61669773 58.17407227 252.31567383 C58.17407227 251.65567383 58.17407227 250.99567383 58.17407227 250.31567383 C58.87274414 249.98954102 59.57141602 249.6634082 60.29125977 249.32739258 C61.20133789 248.89040039 62.11141602 248.4534082 63.04907227 248.00317383 C63.95399414 247.57391602 64.85891602 247.1446582 65.79125977 246.70239258 C68.43856702 245.39573502 68.43856702 245.39573502 70.17407227 242.31567383 C72.51127553 240.7780401 74.79002121 239.48026714 77.36157227 238.37817383 C79.68113585 237.01842966 80.00803845 235.71633169 81.17407227 233.31567383 C82.81837056 231.62693504 84.48791444 229.96261868 86.17407227 228.31567383 C88.68824134 225.44233775 90.92818438 222.73459392 92.86157227 219.44067383 C93.29469727 218.73942383 93.72782227 218.03817383 94.17407227 217.31567383 C94.83407227 217.31567383 95.49407227 217.31567383 96.17407227 217.31567383 C96.33262695 216.78200195 96.49118164 216.24833008 96.65454102 215.69848633 C97.98621461 211.4459596 99.50064709 207.55684013 101.61157227 203.62817383 C108.72862434 189.75849704 110.18030273 174.07902852 110.83300781 158.73632812 C111.07403739 153.41570871 111.07403739 153.41570871 112.17407227 152.31567383 C112.31186828 150.04663285 112.40729575 147.77501228 112.48657227 145.50317383 C112.81491967 138.80134117 113.74059429 132.33223288 115.04907227 125.75317383 C115.21060791 124.92132568 115.37214355 124.08947754 115.53857422 123.23242188 C116.5734153 118.2492022 118.05816102 113.94037108 120.17407227 109.31567383 C120.76013239 107.67808196 121.32685762 106.03324297 121.86157227 104.37817383 C122.11293945 103.60602539 122.36430664 102.83387695 122.62329102 102.03833008 C122.89592773 101.18561523 122.89592773 101.18561523 123.17407227 100.31567383 C123.83407227 100.31567383 124.49407227 100.31567383 125.17407227 100.31567383 C125.48344727 98.39754883 125.48344727 98.39754883 125.79907227 96.44067383 C126.86335548 91.67000571 128.84008811 88.09908673 131.45922852 84.00708008 C133.95495488 80.09009725 136.18809211 76.02781691 138.46313477 71.97973633 C140.14914066 69.35449428 141.93113414 67.46643642 144.17407227 65.31567383 C145.30155386 63.91749153 146.40558722 62.50010745 147.48657227 61.06567383 C152.2891774 54.8130316 157.3444689 48.6455969 163.17407227 43.31567383 C163.83407227 43.31567383 164.49407227 43.31567383 165.17407227 43.31567383 C165.48344727 42.44942383 165.48344727 42.44942383 165.79907227 41.56567383 C167.67552282 38.49511838 170.16399618 37.24212253 173.17407227 35.31567383 C173.85469727 34.63504883 174.53532227 33.95442383 175.23657227 33.25317383 C177.37796076 31.11178534 179.49967678 29.7232504 182.17407227 28.31567383 C182.83407227 28.31567383 183.49407227 28.31567383 184.17407227 28.31567383 C184.17407227 27.65567383 184.17407227 26.99567383 184.17407227 26.31567383 C203.07097948 13.31567383 203.07097948 13.31567383 212.17407227 13.31567383 C212.17407227 12.65567383 212.17407227 11.99567383 212.17407227 11.31567383 C216.00525074 10.05181994 219.84237987 8.80801458 223.68530273 7.58032227 C225.61313516 6.96027304 227.5362787 6.32570369 229.45922852 5.69067383 C244.19524437 1.00537648 258.62387463 -0.04080151 274 0 C276.47448969 0.00315841 278.94777585 -0.0204134 281.42211914 -0.0456543 C297.87672364 -0.11388925 313.37109231 2.23608471 329.04907227 7.31567383 C330.1615332 7.65856445 331.27399414 8.00145508 332.42016602 8.35473633 C337.41696104 9.93013981 341.72865711 11.50432142 346.17407227 14.31567383 C347.3751999 14.91370362 348.58331961 15.49796554 349.79907227 16.06567383 C362.68466892 22.44803314 375.61823519 31.56125605 386.17407227 41.31567383 C386.17407227 41.97567383 386.17407227 42.63567383 386.17407227 43.31567383 C387.00938477 43.62504883 387.00938477 43.62504883 387.86157227 43.94067383 C390.46592175 45.48920596 392.02744921 47.38911569 393.89282227 49.74926758 C395.29162074 51.51934177 395.29162074 51.51934177 397.61157227 53.69067383 C400.26974775 56.41368286 402.4519274 59.26045788 404.68579102 62.33129883 C406.04470855 64.14318888 407.47793427 65.81628177 408.98657227 67.50317383 C411.15244499 70.28786733 411.86851435 71.85268415 412.17407227 75.31567383 C412.83407227 75.31567383 413.49407227 75.31567383 414.17407227 75.31567383 C414.84562159 76.6048087 415.51116086 77.89707587 416.17407227 79.19067383 C416.54532227 79.9099707 416.91657227 80.62926758 417.29907227 81.37036133 C418.17407227 83.31567383 418.17407227 83.31567383 418.17407227 85.31567383 C418.83407227 85.31567383 419.49407227 85.31567383 420.17407227 85.31567383 C420.48860352 86.1380957 420.80313477 86.96051758 421.12719727 87.80786133 C421.76915039 89.48235352 421.76915039 89.48235352 422.42407227 91.19067383 C422.87782227 92.38047852 423.33157227 93.5702832 423.79907227 94.79614258 C424.94605132 97.73201795 426.1700881 100.61255592 427.42407227 103.50317383 C429.40706886 108.37270981 429.95172464 113.09050461 430.17407227 118.31567383 C430.83407227 118.31567383 431.49407227 118.31567383 432.17407227 118.31567383 C432.59051411 120.41585896 432.98160529 122.52108425 433.36157227 124.62817383 C433.58200195 125.79993164 433.80243164 126.97168945 434.02954102 128.17895508 C434.17407227 131.31567383 434.17407227 131.31567383 433.03417969 132.98745728 C430.46748197 134.82021723 428.69717598 134.69647048 425.55688477 134.70385742 C424.40559082 134.7133139 423.25429688 134.72277039 422.06811523 134.73251343 C420.20243896 134.72340439 420.20243896 134.72340439 418.29907227 134.71411133 C416.38505615 134.7184166 416.38505615 134.7184166 414.43237305 134.72280884 C411.7320311 134.72485217 409.03250146 134.72080774 406.33227539 134.70678711 C402.87187997 134.68969472 399.41218256 134.6995369 395.95181274 134.7175045 C392.65087421 134.73095399 389.35001991 134.72153627 386.04907227 134.71411133 C384.80528809 134.72018402 383.56150391 134.72625671 382.2800293 134.73251343 C381.12873535 134.72305695 379.97744141 134.71360046 378.79125977 134.70385742 C377.77660645 134.70147064 376.76195312 134.69908386 375.71655273 134.69662476 C372.77593922 134.25601982 371.9323864 133.66171587 370.17407227 131.31567383 C368.7776624 128.37586359 368.17407227 126.59331126 368.17407227 123.31567383 C367.51407227 123.31567383 366.85407227 123.31567383 366.17407227 123.31567383 C365.87114258 122.54223633 365.56821289 121.76879883 365.25610352 120.97192383 C362.9515156 115.24236372 360.58978943 109.94044287 357.09204102 104.83911133 C356.17407227 103.31567383 356.17407227 103.31567383 356.17407227 101.31567383 C355.59399414 101.08493164 355.01391602 100.85418945 354.41625977 100.61645508 C351.61265851 98.9899756 350.23413402 97.09491316 348.29907227 94.50317383 C344.52702188 89.63736906 340.81294418 86.19066177 335.79907227 82.62817383 C335.26282227 82.19504883 334.72657227 81.76192383 334.17407227 81.31567383 C334.17407227 80.65567383 334.17407227 79.99567383 334.17407227 79.31567383 C333.49344727 79.06817383 332.81282227 78.82067383 332.11157227 78.56567383 C328.60542143 77.07369475 325.45786858 75.24731872 322.17407227 73.31567383 C322.17407227 72.65567383 322.17407227 71.99567383 322.17407227 71.31567383 C321.47926758 71.19321289 320.78446289 71.07075195 320.06860352 70.94458008 C316.90443247 70.25708812 313.92598843 69.29709582 310.86157227 68.25317383 C309.79293945 67.89094727 308.72430664 67.5287207 307.62329102 67.15551758 C306.81504883 66.87836914 306.00680664 66.6012207 305.17407227 66.31567383 C305.17407227 65.65567383 305.17407227 64.99567383 305.17407227 64.31567383 C304.22532227 64.19192383 303.27657227 64.06817383 302.29907227 63.94067383 C299.39883472 63.538914 296.59241635 62.95381773 293.74047852 62.29614258 C287.4896326 61.04001366 281.34502789 60.97451802 274.98657227 61.00317383 C273.79926514 61.00446289 272.61195801 61.00575195 271.38867188 61.00708008 C263.61404818 61.09205445 256.42693493 61.75705589 248.89672852 63.65942383 C246.17407227 64.31567383 246.17407227 64.31567383 242.17407227 64.31567383 C242.17407227 64.97567383 242.17407227 65.63567383 242.17407227 66.31567383 C241.14926758 66.71399414 240.12446289 67.11231445 239.06860352 67.52270508 C237.70783469 68.057628 236.3471627 68.59279731 234.98657227 69.12817383 C233.97626953 69.51972656 233.97626953 69.51972656 232.94555664 69.91918945 C229.11809874 71.43150209 225.65943204 73.09771761 222.17407227 75.31567383 C220.9880278 75.96417631 219.80069375 76.61033089 218.61157227 77.25317383 C215.63900315 78.94996221 213.53432414 80.81237639 211.17407227 83.31567383 C209.15666313 85.07370179 207.12080999 86.8078723 205.07641602 88.53442383 C203.09601013 90.27798551 203.09601013 90.27798551 201.55297852 92.53442383 C201.09793945 93.12223633 200.64290039 93.71004883 200.17407227 94.31567383 C199.51407227 94.31567383 198.85407227 94.31567383 198.17407227 94.31567383 C197.90723633 94.8905957 197.64040039 95.46551758 197.36547852 96.05786133 C196.13342732 98.39269934 194.72568951 100.35461566 193.11157227 102.44067383 C190.94181032 105.25194645 190.94181032 105.25194645 189.17407227 108.31567383 C188.51407227 108.31567383 187.85407227 108.31567383 187.17407227 108.31567383 C186.99811523 109.41782227 186.99811523 109.41782227 186.81860352 110.54223633 C186.17304701 113.32008551 185.26015149 115.22259284 183.86157227 117.69067383 C180.45674659 124.25431176 178.93963734 131.18402449 177.17407227 138.31567383 C176.83883545 139.35304688 176.50359863 140.39041992 176.15820312 141.45922852 C175.02289785 145.90807052 174.73186421 150.06295042 174.53344727 154.63208008 C174.43561927 156.45791921 174.33636461 158.28368235 174.23583984 160.109375 C174.18553619 161.05348236 174.13523254 161.99758972 174.08340454 162.9703064 C173.18234429 179.414958 171.87405536 194.72834143 166.17407227 210.31567383 C165.51407227 210.31567383 164.85407227 210.31567383 164.17407227 210.31567383 C163.83375977 212.17192383 163.83375977 212.17192383 163.48657227 214.06567383 C161.7676667 221.82530467 158.67572274 229.73726194 154.17407227 236.31567383 C153.51407227 236.31567383 152.85407227 236.31567383 152.17407227 236.31567383 C152.07094727 237.01692383 151.96782227 237.71817383 151.86157227 238.44067383 C151.08048224 241.7070503 149.75348483 244.36285903 148.17407227 247.31567383 C147.51407227 247.31567383 146.85407227 247.31567383 146.17407227 247.31567383 C145.92657227 248.42942383 145.67907227 249.54317383 145.42407227 250.69067383 C144.17407227 254.31567383 144.17407227 254.31567383 142.17407227 255.44067383 C141.51407227 255.72942383 140.85407227 256.01817383 140.17407227 256.31567383 C139.49966096 257.97922173 138.83404017 259.64634325 138.17407227 261.31567383 C136.52810716 263.00278806 134.86170078 264.67023603 133.17407227 266.31567383 C132.49139089 267.64087885 131.82336816 268.97379564 131.17407227 270.31567383 C129.88589883 271.69268681 128.54602801 273.02211556 127.17407227 274.31567383 C126.41094727 275.07879883 125.64782227 275.84192383 124.86157227 276.62817383 C123.97469727 277.51504883 123.08782227 278.40192383 122.17407227 279.31567383 C121.31555664 280.20899414 121.31555664 280.20899414 120.43969727 281.12036133 C119.53477539 282.05235352 119.53477539 282.05235352 118.61157227 283.00317383 C118.0534082 283.58454102 117.49524414 284.1659082 116.92016602 284.76489258 C115.17407227 286.31567383 115.17407227 286.31567383 113.20922852 287.27270508 C110.6870784 288.5652465 109.15663513 290.29605371 107.17407227 292.31567383 C105.3870132 293.7032413 103.57281673 295.05638343 101.73657227 296.37817383 C100.80973633 297.04977539 99.88290039 297.72137695 98.92797852 298.41333008 C91.83115645 303.31567383 91.83115645 303.31567383 88.17407227 303.31567383 C88.17407227 303.97567383 88.17407227 304.63567383 88.17407227 305.31567383 C86.21990427 306.29275782 84.26564103 307.26964213 82.31079102 308.24536133 C80.6572057 309.07366549 79.00837872 309.91147275 77.36157227 310.75317383 C69.80359277 314.45806574 62.28309263 317.99881087 54.17407227 320.31567383 C52.91916992 320.68305664 52.91916992 320.68305664 51.63891602 321.05786133 C21.59670328 328.90199224 -12.81822477 328.54232869 -42.82592773 320.31567383 C-42.82592773 319.65567383 -42.82592773 318.99567383 -42.82592773 318.31567383 C-43.75405273 318.23317383 -44.68217773 318.15067383 -45.63842773 318.06567383 C-57.84196498 316.2768019 -69.36986009 309.54909877 -79.82592773 303.31567383 C-80.42405273 302.96118164 -81.02217773 302.60668945 -81.63842773 302.24145508 C-98.52066814 291.9963858 -112.55530415 279.69364571 -124.82592773 264.31567383 C-125.51557617 263.46618164 -126.20522461 262.61668945 -126.91577148 261.74145508 C-142.07235252 242.49352702 -152.61498709 219.17913941 -157.45092773 195.25317383 C-157.66749023 194.21612305 -157.88405273 193.17907227 -158.10717773 192.1105957 C-160.29468187 181.46339195 -161.12954912 171.3100238 -161.20092773 160.44067383 C-161.20615448 159.743573 -161.21138123 159.04647217 -161.21676636 158.32824707 C-161.26993335 142.86878563 -158.59407462 128.28449139 -154.82592773 113.31567383 C-154.16592773 113.31567383 -153.50592773 113.31567383 -152.82592773 113.31567383 C-152.72280273 112.18129883 -152.61967773 111.04692383 -152.51342773 109.87817383 C-151.93482273 105.12170032 -150.47519077 100.79669037 -148.82592773 96.31567383 C-148.16592773 96.31567383 -147.50592773 96.31567383 -146.82592773 96.31567383 C-146.74342773 95.65567383 -146.66092773 94.99567383 -146.57592773 94.31567383 C-145.57238707 90.30151116 -143.77859952 86.94672906 -141.82592773 83.31567383 C-141.43018555 82.57833008 -141.03444336 81.84098633 -140.62670898 81.08129883 C-132.83126581 66.81834287 -132.83126581 66.81834287 -129.82592773 65.31567383 C-129.38120117 64.57317383 -128.93647461 63.83067383 -128.47827148 63.06567383 C-126.71164491 60.12547262 -124.71734935 57.82918114 -122.38842773 55.31567383 C-120.09939226 52.83685369 -117.87649413 50.37980209 -115.78686523 47.72973633 C-111.59682863 42.57148409 -106.54154625 38.64978463 -100.82592773 35.31567383 C-100.22780273 34.71110352 -99.62967773 34.1065332 -99.01342773 33.48364258 C-92.89145793 27.41633322 -85.59472305 22.93218199 -77.82592773 19.31567383 C-77.04217773 18.82067383 -76.25842773 18.32567383 -75.45092773 17.81567383 C-72.2564642 15.99026609 -68.9624014 14.73389136 -65.53295898 13.41333008 C-62.91077925 12.35007971 -60.42217101 11.13519421 -57.88842773 9.87817383 C-52.92257375 7.60566438 -47.89697261 6.04844217 -42.63842773 4.62817383 C-41.54510132 4.32472046 -41.54510132 4.32472046 -40.4296875 4.01513672 C-27.14053706 0.58609317 -13.64978658 -0.03622056 0 0 Z M-29.82592773 64.31567383 C-29.82592773 64.97567383 -29.82592773 65.63567383 -29.82592773 66.31567383 C-30.3944043 66.42524414 -30.96288086 66.53481445 -31.54858398 66.64770508 C-36.64909532 67.69505548 -41.11036974 69.10839136 -45.82592773 71.31567383 C-45.82592773 71.97567383 -45.82592773 72.63567383 -45.82592773 73.31567383 C-46.69217773 73.56317383 -47.55842773 73.81067383 -48.45092773 74.06567383 C-54.42960343 76.27999816 -58.42866315 79.79956426 -62.82592773 84.31567383 C-63.81592773 84.97567383 -64.80592773 85.63567383 -65.82592773 86.31567383 C-65.82592773 86.97567383 -65.82592773 87.63567383 -65.82592773 88.31567383 C-66.72118164 88.70432617 -66.72118164 88.70432617 -67.63452148 89.10083008 C-69.9885121 90.40580527 -71.20878429 91.67041596 -72.88842773 93.75317383 C-75.67829355 97.17945466 -75.67829355 97.17945466 -77.34155273 98.71411133 C-79.2572002 100.78099412 -80.29518596 102.96791392 -81.51342773 105.50317383 C-81.95041992 106.40422852 -82.38741211 107.3052832 -82.83764648 108.23364258 C-83.1637793 108.92071289 -83.48991211 109.6077832 -83.82592773 110.31567383 C-80.69148809 111.36048704 -79.34197869 111.27896848 -76.13444519 110.88526917 C-68.72305986 110.13006397 -61.32926648 110.18332503 -53.88964844 110.20214844 C-52.3116913 110.20243107 -50.73373404 110.2022711 -49.15577698 110.20170593 C-44.90448611 110.20142091 -40.65322389 110.2072697 -36.40193963 110.21427989 C-31.94701298 110.22056279 -27.49208555 110.22112111 -23.03715515 110.2223053 C-14.61559818 110.22540413 -6.1940543 110.23359787 2.22749692 110.24365479 C11.82127989 110.25486106 21.41506351 110.26033772 31.00885141 110.26535022 C50.73059898 110.27578179 70.4523348 110.29335301 90.17407227 110.31567383 C87.55098886 104.93022825 84.47034055 100.48919159 80.17407227 96.31567383 C79.08569981 95.04915345 78.00296262 93.77778125 76.92407227 92.50317383 C73.36384231 88.40468016 69.55767446 84.54039268 65.17407227 81.31567383 C64.51407227 81.31567383 63.85407227 81.31567383 63.17407227 81.31567383 C62.84407227 80.32567383 62.51407227 79.33567383 62.17407227 78.31567383 C60.15683921 76.85638305 60.15683921 76.85638305 57.73657227 75.62817383 C56.93348633 75.19118164 56.13040039 74.75418945 55.30297852 74.30395508 C53.26291395 73.17531969 53.26291395 73.17531969 51.17407227 73.31567383 C51.17407227 72.65567383 51.17407227 71.99567383 51.17407227 71.31567383 C49.09407216 70.47405529 47.0099308 69.6426662 44.92407227 68.81567383 C43.18383789 68.11958008 43.18383789 68.11958008 41.40844727 67.40942383 C38.1115886 66.1021115 38.1115886 66.1021115 34.17407227 66.31567383 C34.17407227 65.65567383 34.17407227 64.99567383 34.17407227 64.31567383 C13.17060465 57.67988152 -8.68095002 58.91490415 -29.82592773 64.31567383 Z " fill="#0178E9" transform="translate(170.825927734375,144.684326171875)"/>
<path d="M0 0 C1.17777008 -0.00315216 2.35554016 -0.00630432 3.56900024 -0.009552 C5.47689835 -0.00651566 5.47689835 -0.00651566 7.42333984 -0.00341797 C9.37776505 -0.00485306 9.37776505 -0.00485306 11.37167358 -0.00631714 C14.12718899 -0.00779066 16.88267196 -0.00564994 19.63818359 -0.00097656 C23.17703127 0.00473175 26.71580329 0.00143261 30.25464821 -0.00454903 C33.62338491 -0.00902097 36.99210099 -0.00589519 40.36083984 -0.00341797 C41.63682037 -0.0054422 42.9128009 -0.00746643 44.22744751 -0.009552 C45.98464615 -0.00482376 45.98464615 -0.00482376 47.77734375 0 C49.3326329 0.00119339 49.3326329 0.00119339 50.91934204 0.00241089 C53.25927734 0.12939453 53.25927734 0.12939453 54.25927734 1.12939453 C55.13153025 14.79469013 49.12188659 27.68594726 44.25927734 40.12939453 C43.90607422 41.06783203 43.55287109 42.00626953 43.18896484 42.97314453 C41.32948734 47.83414084 39.2402602 51.83327219 36.25927734 56.12939453 C34.71769397 59.01732116 33.20856835 61.91871911 31.72412109 64.83642578 C30.25927734 67.12939453 30.25927734 67.12939453 27.25927734 68.12939453 C26.15291339 70.52008187 26.15291339 70.52008187 25.25927734 73.12939453 C24.59927734 74.11939453 23.93927734 75.10939453 23.25927734 76.12939453 C22.59927734 76.12939453 21.93927734 76.12939453 21.25927734 76.12939453 C20.88222656 77.22767578 20.88222656 77.22767578 20.49755859 78.34814453 C19.16601575 81.33886537 17.65740534 83.22855954 15.44677734 85.62939453 C14.72876953 86.40927734 14.01076172 87.18916016 13.27099609 87.99267578 C12.60712891 88.69779297 11.94326172 89.40291016 11.25927734 90.12939453 C10.43427734 91.01626953 9.60927734 91.90314453 8.75927734 92.81689453 C6.03432061 95.33747951 3.15169276 97.4775 0.15771484 99.66455078 C-1.91088891 101.18965695 -1.91088891 101.18965695 -4.11572266 103.56689453 C-16.59384361 115.74791736 -33.67947328 123.85107651 -49.74072266 130.12939453 C-50.93749634 130.60844238 -50.93749634 130.60844238 -52.15844727 131.09716797 C-58.85150987 133.67505922 -65.34726976 135.18767004 -72.42822266 136.25439453 C-73.47550537 136.41834717 -74.52278809 136.5822998 -75.60180664 136.7512207 C-77.69048337 137.07422188 -79.78007426 137.39137595 -81.87060547 137.70214844 C-84.35877493 138.07253773 -86.84256561 138.46337003 -89.32666016 138.85986328 C-98.29052686 140.22147689 -106.74944653 140.14955855 -115.74072266 139.12939453 C-116.64951172 139.02965332 -117.55830078 138.92991211 -118.49462891 138.82714844 C-136.38491404 136.82994418 -153.30183112 134.85805765 -169.58837891 126.70361328 C-173.23453287 124.88279538 -176.91927597 123.15759023 -180.61572266 121.44189453 C-181.30408203 121.1215625 -181.99244141 120.80123047 -182.70166016 120.47119141 C-184.38099506 119.68983419 -186.06080917 118.90950703 -187.74072266 118.12939453 C-187.74072266 117.46939453 -187.74072266 116.80939453 -187.74072266 116.12939453 C-188.61986328 115.87673828 -189.49900391 115.62408203 -190.40478516 115.36376953 C-193.84382482 114.09124431 -196.20163794 112.5841859 -199.11572266 110.37939453 C-200.07478516 109.65880859 -201.03384766 108.93822266 -202.02197266 108.19580078 C-202.91916016 107.51388672 -203.81634766 106.83197266 -204.74072266 106.12939453 C-205.41103516 105.64341797 -206.08134766 105.15744141 -206.77197266 104.65673828 C-230.45093435 87.44935722 -230.45093435 87.44935722 -232.36572266 78.06689453 C-231.23567614 72.75567591 -228.55575681 68.94442869 -224.74072266 65.12939453 C-223.69449391 63.15318467 -222.6863233 61.15568163 -221.74072266 59.12939453 C-221.08072266 59.12939453 -220.42072266 59.12939453 -219.74072266 59.12939453 C-219.63244141 58.58412109 -219.52416016 58.03884766 -219.41259766 57.47705078 C-218.59607767 54.62397804 -217.35301887 52.20371014 -215.99072266 49.56689453 C-211.07319322 39.83796938 -207.0398854 30.84012829 -204.74072266 20.12939453 C-204.08072266 20.12939453 -203.42072266 20.12939453 -202.74072266 20.12939453 C-202.74072266 19.13939453 -202.74072266 18.14939453 -202.74072266 17.12939453 C-201.42072266 17.12939453 -200.10072266 17.12939453 -198.74072266 17.12939453 C-198.28181641 18.00982422 -197.82291016 18.89025391 -197.35009766 19.79736328 C-196.73650391 20.95880859 -196.12291016 22.12025391 -195.49072266 23.31689453 C-194.88744141 24.46544922 -194.28416016 25.61400391 -193.66259766 26.79736328 C-191.22564839 31.02239931 -188.26696526 34.55235638 -185.05322266 38.19189453 C-182.90388984 40.9221281 -182.52875339 41.97727159 -181.74072266 45.12939453 C-180.4266899 45.83334065 -179.08869695 46.49285111 -177.74072266 47.12939453 C-176.07405599 48.7960612 -174.40738932 50.46272786 -172.74072266 52.12939453 C-171.64759766 52.85126953 -170.55447266 53.57314453 -169.42822266 54.31689453 C-168.54134766 54.91501953 -167.65447266 55.51314453 -166.74072266 56.12939453 C-166.74072266 56.78939453 -166.74072266 57.44939453 -166.74072266 58.12939453 C-166.03947266 58.39751953 -165.33822266 58.66564453 -164.61572266 58.94189453 C-161.57574026 60.19753943 -158.66794525 61.63174576 -155.74072266 63.12939453 C-155.74072266 63.78939453 -155.74072266 64.44939453 -155.74072266 65.12939453 C-154.50322266 65.52126953 -153.26572266 65.91314453 -151.99072266 66.31689453 C-148.27756361 67.53347304 -144.79241435 69.00562388 -141.24072266 70.62939453 C-122.60843454 78.37724298 -100.22104923 78.21351957 -80.78759766 73.78564453 C-77.74072266 73.12939453 -77.74072266 73.12939453 -73.74072266 73.12939453 C-73.74072266 72.46939453 -73.74072266 71.80939453 -73.74072266 71.12939453 C-72.62052734 70.73107422 -71.50033203 70.33275391 -70.34619141 69.92236328 C-68.87337547 69.38764667 -67.40072792 68.85246609 -65.92822266 68.31689453 C-65.19023437 68.05585938 -64.45224609 67.79482422 -63.69189453 67.52587891 C-62.9796875 67.26484375 -62.26748047 67.00380859 -61.53369141 66.73486328 C-60.55178833 66.38137817 -60.55178833 66.38137817 -59.55004883 66.02075195 C-57.50472814 65.01313276 -56.29667106 63.77771019 -54.74072266 62.12939453 C-52.83837891 61.10205078 -52.83837891 61.10205078 -50.80322266 60.19189453 C-47.42803959 58.56249581 -45.28961725 56.917248 -42.74072266 54.12939453 C-41.49710306 53.05943353 -40.24622892 51.99788235 -38.99072266 50.94189453 C-35.14887451 47.61708015 -31.81636894 43.9899821 -28.50244141 40.14501953 C-26.74072266 38.12939453 -26.74072266 38.12939453 -25.19384766 36.68017578 C-19.57353331 30.68215214 -16.54417733 21.73170398 -13.74072266 14.12939453 C-13.08072266 14.12939453 -12.42072266 14.12939453 -11.74072266 14.12939453 C-11.55509766 12.30408203 -11.55509766 12.30408203 -11.36572266 10.44189453 C-10.93500703 7.06795546 -10.38966454 4.15245465 -8.74072266 1.12939453 C-5.57161738 0.0730261 -3.32824621 0.00254989 0 0 Z " fill="#017DE4" transform="translate(550.74072265625,331.87060546875)"/>
<path d="M0 0 C6.36589839 4.89666665 12.15391894 10.17661926 17.5625 16.125 C18.12839844 16.74632812 18.69429687 17.36765625 19.27734375 18.0078125 C22.5625 21.77527701 22.5625 21.77527701 22.5625 24.125 C18.80338109 22.62970604 17.08301028 20.52094449 14.6875 17.3125 C10.91544962 12.44669523 7.20137192 8.99998794 2.1875 5.4375 C1.383125 4.7878125 1.383125 4.7878125 0.5625 4.125 C0.5625 3.465 0.5625 2.805 0.5625 2.125 C-0.118125 1.8775 -0.79875 1.63 -1.5 1.375 C-5.00615083 -0.11697908 -8.15370368 -1.94335511 -11.4375 -3.875 C-11.4375 -4.535 -11.4375 -5.195 -11.4375 -5.875 C-12.13230469 -5.99746094 -12.82710938 -6.11992187 -13.54296875 -6.24609375 C-16.70713979 -6.9335857 -19.68558384 -7.89357801 -22.75 -8.9375 C-23.81863281 -9.29972656 -24.88726562 -9.66195312 -25.98828125 -10.03515625 C-26.79652344 -10.31230469 -27.60476563 -10.58945313 -28.4375 -10.875 C-28.4375 -11.535 -28.4375 -12.195 -28.4375 -12.875 C-29.38625 -12.99875 -30.335 -13.1225 -31.3125 -13.25 C-34.21273755 -13.65175983 -37.01915592 -14.2368561 -39.87109375 -14.89453125 C-46.12193967 -16.15066017 -52.26654438 -16.21615581 -58.625 -16.1875 C-59.81230713 -16.18621094 -60.99961426 -16.18492187 -62.22290039 -16.18359375 C-69.99752409 -16.09861938 -77.18463733 -15.43361794 -84.71484375 -13.53125 C-87.4375 -12.875 -87.4375 -12.875 -91.4375 -12.875 C-91.4375 -12.215 -91.4375 -11.555 -91.4375 -10.875 C-92.46230469 -10.47667969 -93.48710937 -10.07835937 -94.54296875 -9.66796875 C-95.90373758 -9.13304583 -97.26440957 -8.59787651 -98.625 -8.0625 C-99.29853516 -7.80146484 -99.97207031 -7.54042969 -100.66601562 -7.27148438 C-104.49347353 -5.75917174 -107.95214023 -4.09295622 -111.4375 -1.875 C-112.62354447 -1.22649752 -113.81087852 -0.58034294 -115 0.0625 C-117.97256911 1.75928838 -120.07724813 3.62170256 -122.4375 6.125 C-124.45490914 7.88302796 -126.49076228 9.61719847 -128.53515625 11.34375 C-130.51556213 13.08731168 -130.51556213 13.08731168 -132.05859375 15.34375 C-132.51363281 15.9315625 -132.96867187 16.519375 -133.4375 17.125 C-134.0975 17.125 -134.7575 17.125 -135.4375 17.125 C-135.70433594 17.69992188 -135.97117187 18.27484375 -136.24609375 18.8671875 C-137.47814495 21.20202551 -138.88588275 23.16394184 -140.5 25.25 C-142.66976195 28.06127263 -142.66976195 28.06127263 -144.4375 31.125 C-145.0975 31.125 -145.7575 31.125 -146.4375 31.125 C-146.55480469 31.85976562 -146.67210937 32.59453125 -146.79296875 33.3515625 C-147.43852525 36.12941168 -148.35142077 38.03191901 -149.75 40.5 C-153.15482567 47.06363793 -154.67193492 53.99335066 -156.4375 61.125 C-156.77273682 62.16237305 -157.10797363 63.19974609 -157.45336914 64.26855469 C-158.58867441 68.71739669 -158.87970805 72.8722766 -159.078125 77.44140625 C-159.175953 79.26724539 -159.27520765 81.09300852 -159.37573242 82.91870117 C-159.4511879 84.33486221 -159.4511879 84.33486221 -159.52816772 85.77963257 C-160.42922798 102.22428417 -161.73751691 117.5376676 -167.4375 133.125 C-168.0975 133.125 -168.7575 133.125 -169.4375 133.125 C-169.7778125 134.98125 -169.7778125 134.98125 -170.125 136.875 C-171.84390557 144.63463084 -174.93584953 152.54658811 -179.4375 159.125 C-180.0975 159.125 -180.7575 159.125 -181.4375 159.125 C-181.540625 159.82625 -181.64375 160.5275 -181.75 161.25 C-182.53109003 164.51637647 -183.85808743 167.1721852 -185.4375 170.125 C-186.0975 170.125 -186.7575 170.125 -187.4375 170.125 C-187.685 171.23875 -187.9325 172.3525 -188.1875 173.5 C-189.4375 177.125 -189.4375 177.125 -191.4375 178.25 C-192.0975 178.53875 -192.7575 178.8275 -193.4375 179.125 C-194.11191131 180.7885479 -194.7775321 182.45566942 -195.4375 184.125 C-197.0834651 185.81211423 -198.74987149 187.4795622 -200.4375 189.125 C-201.12018138 190.45020503 -201.7882041 191.78312182 -202.4375 193.125 C-203.72567344 194.50201298 -205.06554426 195.83144173 -206.4375 197.125 C-207.200625 197.888125 -207.96375 198.65125 -208.75 199.4375 C-209.636875 200.324375 -210.52375 201.21125 -211.4375 202.125 C-212.00984375 202.72054687 -212.5821875 203.31609375 -213.171875 203.9296875 C-213.77515625 204.55101562 -214.3784375 205.17234375 -215 205.8125 C-215.55816406 206.39386719 -216.11632812 206.97523438 -216.69140625 207.57421875 C-218.4375 209.125 -218.4375 209.125 -220.40234375 210.08203125 C-222.92449387 211.37457267 -224.45493713 213.10537988 -226.4375 215.125 C-228.22455907 216.51256747 -230.03875553 217.8657096 -231.875 219.1875 C-232.80183594 219.85910156 -233.72867188 220.53070313 -234.68359375 221.22265625 C-241.78041581 226.125 -241.78041581 226.125 -245.4375 226.125 C-245.4375 226.785 -245.4375 227.445 -245.4375 228.125 C-247.39166799 229.102084 -249.34593124 230.0789683 -251.30078125 231.0546875 C-252.95436657 231.88299166 -254.60319355 232.72079892 -256.25 233.5625 C-263.80797949 237.26739191 -271.32847963 240.80813704 -279.4375 243.125 C-280.69240234 243.49238281 -280.69240234 243.49238281 -281.97265625 243.8671875 C-312.01486898 251.71131842 -346.42979704 251.35165486 -376.4375 243.125 C-376.4375 242.465 -376.4375 241.805 -376.4375 241.125 C-377.365625 241.0425 -378.29375 240.96 -379.25 240.875 C-391.45353725 239.08612807 -402.98143235 232.35842494 -413.4375 226.125 C-414.035625 225.77050781 -414.63375 225.41601562 -415.25 225.05078125 C-432.1322404 214.80571197 -446.16687642 202.50297188 -458.4375 187.125 C-459.47197266 185.85076172 -459.47197266 185.85076172 -460.52734375 184.55078125 C-467.7881749 175.32997114 -475.36382102 164.17054748 -479.4375 153.125 C-479.1075 152.135 -478.7775 151.145 -478.4375 150.125 C-478.18170166 150.63248779 -477.92590332 151.13997559 -477.66235352 151.6628418 C-457.04072385 192.33187443 -424.86488548 223.28821318 -381.20898438 238.22290039 C-337.74783598 252.36921323 -291.6787867 247.9684555 -251.12548828 227.55078125 C-244.87111219 224.23329202 -239.11327219 220.34191003 -233.4375 216.125 C-232.59445312 215.51011719 -231.75140625 214.89523437 -230.8828125 214.26171875 C-225.09256636 209.90400755 -219.72247106 205.07675441 -214.4375 200.125 C-213.47585938 199.22910156 -212.51421875 198.33320313 -211.5234375 197.41015625 C-199.99933413 186.43250273 -191.28150625 173.63775818 -183.43554688 159.85253906 C-182.53654404 158.29643728 -181.59124115 156.76730645 -180.640625 155.2421875 C-169.21768096 136.01181841 -163.75446204 112.74116894 -163.14770508 90.58984375 C-162.13516109 55.35679437 -151.98459763 29.11649897 -126.10644531 4.65039062 C-91.83125948 -26.67660778 -36.53661586 -27.16206105 0 0 Z " fill="#141C2A" transform="translate(504.4375,221.875)"/>
<path d="M0 0 C1.47906892 -0.02689216 2.95827483 -0.04634621 4.4375 -0.0625 C5.26121094 -0.07410156 6.08492187 -0.08570313 6.93359375 -0.09765625 C9 0 9 0 10 1 C10.87225291 14.6652956 4.86260925 27.55655273 0 40 C-0.35320312 40.9384375 -0.70640625 41.876875 -1.0703125 42.84375 C-2.92979 47.70474631 -5.01901715 51.70387765 -8 56 C-9.54158337 58.88792663 -11.05070899 61.78932458 -12.53515625 64.70703125 C-14 67 -14 67 -17 68 C-18.10636395 70.39068734 -18.10636395 70.39068734 -19 73 C-19.66 73.99 -20.32 74.98 -21 76 C-21.66 76 -22.32 76 -23 76 C-23.37705078 77.09828125 -23.37705078 77.09828125 -23.76171875 78.21875 C-25.09326159 81.20947084 -26.60187201 83.09916501 -28.8125 85.5 C-29.53050781 86.27988281 -30.24851562 87.05976563 -30.98828125 87.86328125 C-31.65214844 88.56839844 -32.31601562 89.27351563 -33 90 C-33.825 90.886875 -34.65 91.77375 -35.5 92.6875 C-38.22495673 95.20808498 -41.10758458 97.34810546 -44.1015625 99.53515625 C-46.17016625 101.06026241 -46.17016625 101.06026241 -48.375 103.4375 C-60.85312095 115.61852283 -77.93875062 123.72168198 -94 130 C-95.19677368 130.47904785 -95.19677368 130.47904785 -96.41772461 130.96777344 C-103.11078721 133.54566469 -109.60654711 135.05827551 -116.6875 136.125 C-117.73478271 136.28895264 -118.78206543 136.45290527 -119.86108398 136.62182617 C-121.94976072 136.94482734 -124.03935161 137.26198142 -126.12988281 137.57275391 C-128.61805228 137.9431432 -131.10184295 138.3339755 -133.5859375 138.73046875 C-142.5498042 140.09208236 -151.00872387 140.02016402 -160 139 C-160.90878906 138.90025879 -161.81757813 138.80051758 -162.75390625 138.69775391 C-180.64419138 136.70054965 -197.56110846 134.72866312 -213.84765625 126.57421875 C-217.49381021 124.75340085 -221.17855331 123.0281957 -224.875 121.3125 C-225.56335938 120.99216797 -226.25171875 120.67183594 -226.9609375 120.34179688 C-228.64027241 119.56043966 -230.32008651 118.7801125 -232 118 C-232 117.34 -232 116.68 -232 116 C-232.87914062 115.74734375 -233.75828125 115.4946875 -234.6640625 115.234375 C-238.10310217 113.96184978 -240.46091529 112.45479137 -243.375 110.25 C-244.3340625 109.52941406 -245.293125 108.80882812 -246.28125 108.06640625 C-247.1784375 107.38449219 -248.075625 106.70257813 -249 106 C-249.6703125 105.51402344 -250.340625 105.02804687 -251.03125 104.52734375 C-260.35816981 97.74951855 -269.59793831 90.69455056 -276 81 C-275.505 80.01 -275.505 80.01 -275 79 C-273.77083333 80.22916667 -272.54166667 81.45833333 -271.3125 82.6875 C-270.20648438 83.79158203 -270.20648438 83.79158203 -269.078125 84.91796875 C-267.563233 86.43570829 -266.05950263 87.96461269 -264.5625 89.5 C-256.62622896 97.24270345 -248.18847294 103.6029408 -238.95751953 109.70556641 C-237.21305296 110.85911614 -235.47882577 112.02811656 -233.74609375 113.19921875 C-207.3934209 130.3301389 -174.1920679 137.72247447 -143 136 C-141.78497803 135.93619141 -141.78497803 135.93619141 -140.54541016 135.87109375 C-127.54207036 135.10575853 -115.42853724 132.8629967 -103 129 C-102.28392578 128.78359863 -101.56785156 128.56719727 -100.83007812 128.34423828 C-60.50656703 115.96762342 -27.99225572 86.45519317 -8.32421875 49.59375 C-0.36427278 34.17686655 4.63915242 17.98246469 8 1 C5.36 1 2.72 1 0 1 C0 0.67 0 0.34 0 0 Z " fill="#151E2D" transform="translate(595,332)"/>
<path d="M0 0 C0.66 0 1.32 0 2 0 C3.125 5.75 3.125 5.75 2 8 C1.34 8 0.68 8 0 8 C-0.28875 8.7425 -0.5775 9.485 -0.875 10.25 C-1.82302644 12.56739797 -2.84845911 14.77917115 -4 17 C-4.66 17 -5.32 17 -6 17 C-6.11730469 17.73863281 -6.23460937 18.47726563 -6.35546875 19.23828125 C-6.99745695 21.9891034 -7.85832826 23.78789153 -9.3125 26.1875 C-11.64581017 30.22876633 -13.42972534 34.30551108 -15.09375 38.66015625 C-15.86691828 40.65639676 -16.73658204 42.61481448 -17.625 44.5625 C-18.99058807 47.97647017 -19.79065567 51.19069753 -20.47265625 54.7890625 C-21 57 -21 57 -21.9609375 59.1796875 C-23.44436085 63.20612231 -23.97167351 67.2613944 -24.5625 71.5 C-24.75646362 72.86451294 -24.75646362 72.86451294 -24.9543457 74.2565918 C-26.27832939 84.14115076 -26.7073333 94.03924011 -27 104 C-30.09378303 105.54689151 -33.36118639 105.15387377 -36.75735474 105.15821838 C-37.56760695 105.16315636 -38.37785917 105.16809434 -39.21266448 105.17318195 C-41.94271819 105.18860777 -44.67274829 105.19693129 -47.40283203 105.20532227 C-49.35384328 105.2148968 -51.30485243 105.22490662 -53.25585938 105.23532104 C-58.56547561 105.26242222 -63.87510079 105.28340351 -69.18474817 105.30332303 C-74.72880347 105.3251505 -80.27283105 105.352555 -85.81686401 105.37937927 C-96.32115817 105.42935006 -106.82546767 105.47427258 -117.3297919 105.51740164 C-129.28609826 105.56673658 -141.24237683 105.62166856 -153.19865632 105.67708123 C-177.7990783 105.79096859 -202.39952692 105.89779287 -227 106 C-228.27472782 110.26604967 -227.59675239 113.94544983 -226.8125 118.25 C-226.67666504 119.01489746 -226.54083008 119.77979492 -226.40087891 120.56787109 C-225.3662565 125.98660455 -223.68470231 130.16753584 -221 135 C-220.44348508 137.36290763 -220.20230505 139.57233936 -220 142 C-219.34 142 -218.68 142 -218 142 C-217.32880451 143.4562545 -216.66318193 144.91507867 -216 146.375 C-215.443125 147.59316406 -215.443125 147.59316406 -214.875 148.8359375 C-214 151 -214 151 -214 153 C-213.34 153 -212.68 153 -212 153 C-208.77734375 158.2734375 -208.77734375 158.2734375 -208 160 C-208.33 160.66 -208.66 161.32 -209 162 C-223.01639587 144.7404487 -229.26254805 124.8996156 -232 103 C-165.01 103 -98.02 103 -29 103 C-29 96.73 -29 90.46 -29 84 C-26.76819487 56.40677291 -17.1208396 30.50345062 -2 7.3125 C0.3445794 4.07419898 0.3445794 4.07419898 0 0 Z " fill="#0E2042" transform="translate(300,206)"/>
<path d="M0 0 C1.35329692 -0.01146588 2.70655057 -0.03183181 4.05957031 -0.06152344 C14.04365731 -0.27946875 22.48992177 1.0307724 31.92089844 4.29516602 C32.67661133 4.5467749 33.43232422 4.79838379 34.2109375 5.05761719 C57.30719546 13.06776007 57.30719546 13.06776007 60.92089844 20.29516602 C57.12988654 18.84566147 53.53343464 17.14344035 49.92089844 15.29516602 C49.92089844 14.63516602 49.92089844 13.97516602 49.92089844 13.29516602 C44.26517983 11.58820869 38.60597835 9.90181904 32.92089844 8.29516602 C32.92089844 7.63516602 32.92089844 6.97516602 32.92089844 6.29516602 C31.97214844 6.17141602 31.02339844 6.04766602 30.04589844 5.92016602 C27.14336909 5.51798878 24.33393161 4.93291296 21.47949219 4.27563477 C15.2705314 3.02838018 9.17446544 2.95400547 2.85839844 2.98266602 C1.67697266 2.98395508 0.49554688 2.98524414 -0.72167969 2.98657227 C-9.03283101 3.07725586 -16.90609516 3.85923073 -25.01660156 5.63891602 C-28.07910156 6.29516602 -28.07910156 6.29516602 -31.07910156 6.29516602 C-31.07910156 6.95516602 -31.07910156 7.61516602 -31.07910156 8.29516602 C-33.18082023 9.13465421 -35.28556782 9.96656257 -37.39160156 10.79516602 C-38.56335938 11.25922852 -39.73511719 11.72329102 -40.94238281 12.20141602 C-44.07910156 13.29516602 -44.07910156 13.29516602 -47.07910156 13.29516602 C-47.07910156 13.95516602 -47.07910156 14.61516602 -47.07910156 15.29516602 C-47.81515625 15.6702832 -48.55121094 16.04540039 -49.30957031 16.43188477 C-54.66744724 19.2417621 -58.9905567 21.76461631 -63.07910156 26.29516602 C-65.13436762 28.10556639 -67.21769405 29.87883309 -69.30957031 31.64672852 C-71.29521845 33.36940339 -71.29521845 33.36940339 -73.07910156 36.29516602 C-73.73910156 36.29516602 -74.39910156 36.29516602 -75.07910156 36.29516602 C-75.34722656 37.09954102 -75.61535156 37.90391602 -75.89160156 38.73266602 C-76.28347656 39.57829102 -76.67535156 40.42391602 -77.07910156 41.29516602 C-78.56410156 41.79016602 -78.56410156 41.79016602 -80.07910156 42.29516602 C-80.42401606 43.6255505 -80.75426739 44.95973663 -81.07910156 46.29516602 C-82.36706322 48.32468136 -83.69468157 50.3301828 -85.07910156 52.29516602 C-86.06910156 51.96516602 -87.05910156 51.63516602 -88.07910156 51.29516602 C-72.93916714 27.28578772 -51.4942303 10.09779063 -24.14160156 1.98657227 C-16.13063551 0.17797406 -8.18947721 0.0480235 0 0 Z " fill="#121B2E" transform="translate(172.0791015625,202.704833984375)"/>
<path d="M0 0 C66.66 0 133.32 0 202 0 C202 0.33 202 0.66 202 1 C136.66 1.33 71.32 1.66 4 2 C2.88326416 6.46694338 3.38114917 9.8241574 4.1875 14.25 C4.32333496 15.01489746 4.45916992 15.77979492 4.59912109 16.56787109 C5.6337435 21.98660455 7.31529769 26.16753584 10 31 C10.55651492 33.36290763 10.79769495 35.57233936 11 38 C11.66 38 12.32 38 13 38 C13.67119549 39.4562545 14.33681807 40.91507867 15 42.375 C15.37125 43.18710937 15.7425 43.99921875 16.125 44.8359375 C17 47 17 47 17 49 C17.66 49 18.32 49 19 49 C22.22265625 54.2734375 22.22265625 54.2734375 23 56 C22.67 56.66 22.34 57.32 22 58 C8.23653494 41.0519034 1.44170648 21.62559715 0 0 Z " fill="#17171A" transform="translate(69,310)"/>
<path d="M0 0 C6.54491401 2.08196926 12.9333729 4.25749832 19.16015625 7.16796875 C22.6140622 8.72992622 26.20909649 9.5858096 29.875 10.5 C30.90367187 10.7578125 31.93234375 11.015625 32.9921875 11.28125 C38.77429585 12.66294862 44.32931336 13.30478996 50.2578125 13.71875 C53 14 53 14 56 15 C60.41065571 15.20750693 64.82405717 15.18579575 69.23901367 15.18530273 C71.39848393 15.18746101 73.55741893 15.20554366 75.71679688 15.22460938 C83.15867368 15.25303682 90.25345722 14.89114889 97.56665039 13.33325195 C100.0579016 12.99207026 101.63471766 13.21180252 104 14 C104.33 13.34 104.66 12.68 105 12 C106.92578125 11.40234375 106.92578125 11.40234375 109.3125 10.9375 C110.09238281 10.78152344 110.87226563 10.62554687 111.67578125 10.46484375 C112.44277344 10.31144531 113.20976562 10.15804688 114 10 C115.33433904 9.6707156 116.6678149 9.3378931 118 9 C119.66519519 8.65939189 121.33157466 8.32441604 123 8 C123.495 8.99 123.495 8.99 124 10 C83.38197981 22.9752009 39.82521713 20.7471837 1 3 C0.34 2.34 -0.32 1.68 -1 1 C-0.67 0.67 -0.34 0.34 0 0 Z " fill="#044AC3" transform="translate(105,451)"/>
<path d="M0 0 C0.66 0 1.32 0 2 0 C2.41644184 2.10018513 2.80753303 4.20541042 3.1875 6.3125 C3.40792969 7.48425781 3.62835937 8.65601563 3.85546875 9.86328125 C4 13 4 13 2.86109924 14.67376709 C0.28577859 16.5089594 -1.48503026 16.36772259 -4.63305664 16.35644531 C-5.78757828 16.35944641 -6.94209991 16.36244751 -8.13160706 16.36553955 C-9.37852829 16.35319275 -10.62544952 16.34084595 -11.91015625 16.328125 C-13.18853867 16.32625183 -14.46692108 16.32437866 -15.78404236 16.32244873 C-18.48857261 16.31572066 -21.1923528 16.30343306 -23.89672852 16.28125 C-27.36599265 16.25293945 -30.83502223 16.24203536 -34.30439091 16.2375679 C-37.6105085 16.23241638 -40.91656945 16.21787728 -44.22265625 16.203125 C-45.47160172 16.19887512 -46.72054718 16.19462524 -48.00733948 16.19024658 C-49.15870895 16.18063904 -50.31007843 16.17103149 -51.49633789 16.16113281 C-52.51321182 16.15430481 -53.53008575 16.14747681 -54.57777405 16.14044189 C-57 16 -57 16 -59 15 C-59 14.34 -59 13.68 -59 13 C-38.87 13 -18.74 13 2 13 C1.34 10.03 0.68 7.06 0 4 C0 2.68 0 1.36 0 0 Z " fill="#162438" transform="translate(601,263)"/>
<path d="M0 0 C2.74843561 3.38074442 4.65706004 7.07649539 6.625 10.9375 C20.85219613 38.09700931 43.02250907 60.48937988 70 75 C67.73463956 75.79163145 66.51129793 76.20839092 64.24609375 75.28515625 C63.35083984 74.67994141 63.35083984 74.67994141 62.4375 74.0625 C61.74269531 73.59585938 61.04789063 73.12921875 60.33203125 72.6484375 C59.56246094 72.10445313 58.79289062 71.56046875 58 71 C57.13761719 70.39414062 56.27523437 69.78828125 55.38671875 69.1640625 C42.06162754 59.62729283 31.21524011 49.80209389 21 37 C20.31035156 36.15050781 19.62070312 35.30101562 18.91015625 34.42578125 C0 10.41104294 0 10.41104294 0 0 Z " fill="#0E1A2B" transform="translate(25,372)"/>
<path d="M0 0 C8.91 0 17.82 0 27 0 C27 0.33 27 0.66 27 1 C19.41 1.33 11.82 1.66 4 2 C2.88326416 6.46694338 3.38114917 9.8241574 4.1875 14.25 C4.32333496 15.01489746 4.45916992 15.77979492 4.59912109 16.56787109 C5.6337435 21.98660455 7.31529769 26.16753584 10 31 C10.55651492 33.36290763 10.79769495 35.57233936 11 38 C11.66 38 12.32 38 13 38 C13.67119549 39.4562545 14.33681807 40.91507867 15 42.375 C15.37125 43.18710937 15.7425 43.99921875 16.125 44.8359375 C17 47 17 47 17 49 C17.66 49 18.32 49 19 49 C22.22265625 54.2734375 22.22265625 54.2734375 23 56 C22.67 56.66 22.34 57.32 22 58 C8.56162201 41.45221008 0.60764956 21.26773451 0 0 Z " fill="#121826" transform="translate(69,310)"/>
<path d="M0 0 C17.75790467 13.51144921 31.79041146 39.57920736 37 61 C37.09765625 63.8359375 37.09765625 63.8359375 37 66 C34.42853943 63.42853943 34.19882003 61.3949583 33.375 57.875 C33.11460937 56.77929688 32.85421875 55.68359375 32.5859375 54.5546875 C32.39257812 53.71164063 32.19921875 52.86859375 32 52 C31.34 52 30.68 52 30 52 C29.896875 51.13375 29.79375 50.2675 29.6875 49.375 C28.96521592 45.8292418 27.63795018 43.20468514 26 40 C26 39.01 26 38.02 26 37 C25.34 37 24.68 37 24 37 C22.5393715 34.35261084 22 33.10551666 22 30 C21.34 30 20.68 30 20 30 C20 29.34 20 28.68 20 28 C19.34 27.67 18.68 27.34 18 27 C17.32558869 25.3364521 16.6599679 23.66933058 16 22 C15.00612666 20.66209359 14.0073108 19.32781878 13 18 C13 17.34 13 16.68 13 16 C12.4225 15.814375 11.845 15.62875 11.25 15.4375 C8.82262826 13.88667917 8.22359487 12.9116139 6.875 10.4375 C5.40524759 6.96468026 5.40524759 6.96468026 3 6 C3 5.34 3 4.68 3 4 C2.01 3.67 1.02 3.34 0 3 C0 2.01 0 1.02 0 0 Z " fill="#0B96E5" transform="translate(562,195)"/>
<path d="M0 0 C1.47906892 -0.02689216 2.95827483 -0.04634621 4.4375 -0.0625 C5.26121094 -0.07410156 6.08492187 -0.08570313 6.93359375 -0.09765625 C9 0 9 0 10 1 C11.00899837 16.80764119 3.23422573 32.89096283 -3 47 C-3.99 47 -4.98 47 -6 47 C-4.30564011 41.72839952 -2.46955941 36.55256816 -0.39892578 31.41723633 C3.60218135 21.49270851 6.78649283 11.6788631 8 1 C5.36 1 2.72 1 0 1 C0 0.67 0 0.34 0 0 Z " fill="#172133" transform="translate(595,332)"/>
<path d="M0 0 C0.66 0 1.32 0 2 0 C3.02970259 1.31053056 4.02418241 2.64886795 5 4 C5.99 4.9590625 5.99 4.9590625 7 5.9375 C9 8 9 8 10.4375 10.4375 C13.92851557 16.16276553 20.51695188 22.83898396 27 25 C27.45375 25.76828125 27.9075 26.5365625 28.375 27.328125 C30.23299419 30.38309621 32.0488921 31.76502862 35 33.75 C35.86625 34.34296875 36.7325 34.9359375 37.625 35.546875 C40.00933991 37.12832325 40.00933991 37.12832325 43 38 C43.33 38.66 43.66 39.32 44 40 C44.825 40.165 45.65 40.33 46.5 40.5 C47.325 40.665 48.15 40.83 49 41 C49.33 41.66 49.66 42.32 50 43 C50.99 43.495 50.99 43.495 52 44 C51.34 44.66 50.68 45.32 50 46 C31.27203163 34.47290701 12.35832432 20.57586637 0 2 C0 1.34 0 0.68 0 0 Z " fill="#0449CD" transform="translate(43,401)"/>
<path d="M0 0 C2 2 2 2 2.5 5.5625 C2.665 6.696875 2.83 7.83125 3 9 C3.66 9.33 4.32 9.66 5 10 C5.5625 11.8203125 5.5625 11.8203125 6 14.125 C6.58298642 17.02616078 7.22780946 19.77723228 8.0625 22.625 C9 26 9 26 9.5 29.625 C9.85726576 32.9635538 9.85726576 32.9635538 11.125 35.75 C12 38 12 38 11 41 C10.38999919 39.6902013 9.78742568 38.37694391 9.1875 37.0625 C8.85105469 36.33160156 8.51460937 35.60070312 8.16796875 34.84765625 C5.19318158 27.59474707 3.28512031 20.31471382 1.8125 12.625 C1.63525391 11.73683594 1.45800781 10.84867187 1.27539062 9.93359375 C0 3.42368485 0 3.42368485 0 0 Z " fill="#073485" transform="translate(12,329)"/>
<path d="M0 0 C4.8281901 1.51277251 7.97238297 4.27653578 11.6875 7.5625 C15.58605233 11.14919703 15.58605233 11.14919703 20 14 C20 14.66 20 15.32 20 16 C20.8353125 16.309375 20.8353125 16.309375 21.6875 16.625 C24.29184949 18.17353213 25.85337694 20.07344186 27.71875 22.43359375 C29.11754848 24.20366794 29.11754848 24.20366794 31.4375 26.375 C34.65460562 29.67057161 37.3080127 33.27192137 40 37 C39.505 37.99 39.505 37.99 39 39 C38.27554688 38.14277344 37.55109375 37.28554687 36.8046875 36.40234375 C35.31740506 34.64251726 33.82919503 32.88350648 32.33862305 31.12646484 C30.28315896 28.70342378 28.23031261 26.28070924 26.21484375 23.82421875 C20.01310116 16.30957244 12.25888937 10.55065105 4.57226562 4.64355469 C3.03093299 3.45099688 1.51302656 2.22827156 0 1 C0 0.67 0 0.34 0 0 Z " fill="#0F1F3D" transform="translate(537,172)"/>
<path d="M0 0 C3 1 3 1 4.6875 3.9375 C6 7 6 7 6 9 C6.66 9 7.32 9 8 9 C8.67154933 10.28913487 9.33708859 11.58140204 10 12.875 C10.37125 13.59429687 10.7425 14.31359375 11.125 15.0546875 C12 17 12 17 12 19 C12.66 19 13.32 19 14 19 C14.31453125 19.82242188 14.6290625 20.64484375 14.953125 21.4921875 C15.38109375 22.60851562 15.8090625 23.72484375 16.25 24.875 C16.930625 26.65777344 16.930625 26.65777344 17.625 28.4765625 C18.77768941 31.43032911 20.00020841 34.33688283 21.25 37.25 C23.12182804 41.85409315 23.68077402 46.05199732 24 51 C22.29465704 48.44198557 21.48961576 46.77848333 20.58984375 43.9296875 C15.85948359 29.43725482 9.96274384 15.98363714 0.99609375 3.56640625 C0 2 0 2 0 0 Z " fill="#13192F" transform="translate(577,211)"/>
<path d="M0 0 C0.99 0.33 1.98 0.66 3 1 C3.144375 2.051875 3.28875 3.10375 3.4375 4.1875 C3.87526966 7.15460549 4.37804866 10.06794366 5 13 C5.66 13 6.32 13 7 13 C9 18.75 9 18.75 9 21 C9.66 21.33 10.32 21.66 11 22 C11 22.99 11 23.98 11 25 C11.99 25.33 12.98 25.66 14 26 C15.1328125 27.92578125 15.1328125 27.92578125 16.125 30.3125 C16.45757812 31.09238281 16.79015625 31.87226563 17.1328125 32.67578125 C17.91550386 34.77353512 18.51059398 36.81764866 19 39 C19.66 39 20.32 39 21 39 C21.33 39.99 21.66 40.98 22 42 C21.01 42.495 21.01 42.495 20 43 C6 20.12418301 6 20.12418301 6 16 C5.34 16 4.68 16 4 16 C2.33445973 10.69960141 0.72724594 5.52706913 0 0 Z " fill="#034BCF" transform="translate(20,356)"/>
<path d="M0 0 C-0.66 1.65 -1.32 3.3 -2 5 C-2.495 4.01 -2.495 4.01 -3 3 C-3.59167969 3.144375 -4.18335938 3.28875 -4.79296875 3.4375 C-13.02916085 5.37226617 -13.02916085 5.37226617 -17 5 C-17.33 4.67 -17.66 4.34 -18 4 C-19.33802186 3.77486899 -20.68573023 3.60639193 -22.03515625 3.46484375 C-22.84404297 3.37783203 -23.65292969 3.29082031 -24.48632812 3.20117188 C-25.33646484 3.11416016 -26.18660156 3.02714844 -27.0625 2.9375 C-27.91650391 2.84662109 -28.77050781 2.75574219 -29.65039062 2.66210938 C-31.76651535 2.43749278 -33.88320894 2.21824773 -36 2 C-36 1.67 -36 1.34 -36 1 C-31.83744602 0.85627913 -27.67484861 0.71390923 -23.51220703 0.57275391 C-22.09813205 0.52461656 -20.68406926 0.47611954 -19.27001953 0.42724609 C-17.22952375 0.356785 -15.18898663 0.28764671 -13.1484375 0.21875 C-11.31031494 0.1559082 -11.31031494 0.1559082 -9.43505859 0.09179688 C-6.28783926 0.00769208 -3.1481209 -0.01685741 0 0 Z " fill="#053C93" transform="translate(198,408)"/>
<path d="M0 0 C6.01501075 1.57245205 11.18589528 3.13726258 16.328125 6.6796875 C16.658125 7.3396875 16.988125 7.9996875 17.328125 8.6796875 C18.6275 9.1128125 18.6275 9.1128125 19.953125 9.5546875 C25.03288643 11.24794131 29.75612733 13.57189018 33.328125 17.6796875 C33.885 18.2365625 34.441875 18.7934375 35.015625 19.3671875 C35.44875 19.8003125 35.881875 20.2334375 36.328125 20.6796875 C32.25574629 20.6796875 30.8292103 19.03932692 27.578125 16.6171875 C17.4814376 9.36423282 6.51660618 4.34037466 -5.671875 1.6796875 C-2.671875 -0.3203125 -2.671875 -0.3203125 0 0 Z " fill="#0592E0" transform="translate(473.671875,204.3203125)"/>
<path d="M0 0 C6.52543141 0.42557161 11.31085851 2.900756 17 6 C17.85980469 6.45246094 18.71960938 6.90492188 19.60546875 7.37109375 C25.8614278 10.72285559 25.8614278 10.72285559 27 13 C24.03 12.67 21.06 12.34 18 12 C18 11.34 18 10.68 18 10 C17.443125 9.87625 16.88625 9.7525 16.3125 9.625 C13.77885636 8.94023145 11.42078968 8.00866237 9 7 C9 6.34 9 5.68 9 5 C8.01 5 7.02 5 6 5 C4.5 3.625 4.5 3.625 3 2 C2.01 1.34 1.02 0.68 0 0 Z " fill="#10568A" transform="translate(502,154)"/>
<path d="M0 0 C5.60643705 1.64455487 10.39493445 3.33956328 15 7 C15 7.66 15 8.32 15 9 C15.57234375 9.10183594 16.1446875 9.20367187 16.734375 9.30859375 C19.40275646 10.12291016 21.05965688 11.34673122 23.25 13.0625 C23.95640625 13.61035156 24.6628125 14.15820312 25.390625 14.72265625 C25.92171875 15.14417969 26.4528125 15.56570312 27 16 C18.865324 16 10.48017914 8.69081011 3.98828125 4.3046875 C2.0429243 2.97279605 2.0429243 2.97279605 0 2 C0 1.34 0 0.68 0 0 Z " fill="#0771B4" transform="translate(249,164)"/>
<path d="M0 0 C-11.47137604 6.26728837 -26.1006084 8.19569241 -39 8 C-35.79303059 5.8620204 -33.82077335 5.430362 -30.0625 4.8125 C-29.02222656 4.63332031 -27.98195312 4.45414062 -26.91015625 4.26953125 C-24.22831359 4.02114582 -22.52075332 4.14355128 -20 5 C-19.67 4.34 -19.34 3.68 -19 3 C-17.07421875 2.40234375 -17.07421875 2.40234375 -14.6875 1.9375 C-13.51767578 1.70353516 -13.51767578 1.70353516 -12.32421875 1.46484375 C-11.17373047 1.23474609 -11.17373047 1.23474609 -10 1 C-2.38369565 -0.79456522 -2.38369565 -0.79456522 0 0 Z " fill="#0254D2" transform="translate(229,460)"/>
<path d="M0 0 C3.13927268 1.35990045 4.87527351 2.77605875 7 5.4375 C10.13704295 9.1436825 13.49398933 12.46875665 17.0625 15.75 C17.55685547 16.20947021 18.05121094 16.66894043 18.56054688 17.14233398 C21.86008386 20.14524041 25.24951643 22.61484849 29 25 C27 26 27 26 23 26 C22.13113011 24.64456297 21.27134334 23.28272634 20.44921875 21.8984375 C18.52290044 19.37501243 16.24377104 17.64811999 13.75 15.6875 C8.60623487 11.61391419 3.91011319 7.29937976 0 2 C0 1.34 0 0.68 0 0 Z " fill="#111D34" transform="translate(92,368)"/>
<path d="M0 0 C1.65 0 3.3 0 5 0 C5 0.66 5 1.32 5 2 C5.66 2.103125 6.32 2.20625 7 2.3125 C10.83841009 3.19213564 14.33096691 4.56969896 18 6 C18 6.66 18 7.32 18 8 C19.32 8 20.64 8 22 8 C23.38007251 9.2848951 24.70420353 10.63015802 26 12 C28.28590842 13.74282003 30.63551769 15.36305071 33 17 C32.67 17.66 32.34 18.32 32 19 C31.46375 18.5875 30.9275 18.175 30.375 17.75 C25.07204454 13.84255913 19.63009836 10.62212474 13.75 7.6875 C13.07710937 7.35041016 12.40421875 7.01332031 11.7109375 6.66601562 C7.88097604 4.79266491 4.08841757 3.25064947 0 2 C0 1.34 0 0.68 0 0 Z " fill="#058CE8" transform="translate(204,206)"/>
<path d="M0 0 C3.50910665 1.16970222 3.78174698 1.85048928 5.5625 4.9375 C6.94197027 7.30537576 8.04971701 9.04971701 10 11 C10.91209391 12.45658633 11.78349247 13.93902607 12.625 15.4375 C13.07101562 16.21996094 13.51703125 17.00242187 13.9765625 17.80859375 C15 20 15 20 15 23 C10.87184538 21.62394846 10.55423236 19.70727605 8.625 15.875 C6.64722464 12.01904948 4.65878785 8.29640763 2.0625 4.8125 C0 2 0 2 0 0 Z " fill="#0797E9" transform="translate(525,241)"/>
<path d="M0 0 C1.39698636 0.28609307 2.7925433 0.57916905 4.1875 0.875 C5.35345703 1.11863281 5.35345703 1.11863281 6.54296875 1.3671875 C9 2 9 2 11.34375 2.96875 C14.61729957 4.23965748 17.8744999 4.91812148 21.3125 5.625 C23.19388672 6.01558594 23.19388672 6.01558594 25.11328125 6.4140625 C26.54220703 6.70410156 26.54220703 6.70410156 28 7 C28 7.33 28 7.66 28 8 C22.06 8.495 22.06 8.495 16 9 C16 8.01 16 7.02 16 6 C14.88625 6.309375 14.88625 6.309375 13.75 6.625 C10.6098126 7.05320737 9.6530451 6.59182706 7 5 C6.01 4.67 5.02 4.34 4 4 C4 3.34 4 2.68 4 2 C3.01 2.33 2.02 2.66 1 3 C0.67 2.01 0.34 1.02 0 0 Z " fill="#063B90" transform="translate(134,401)"/>
<path d="M0 0 C1.32 0 2.64 0 4 0 C4.86646667 1.43011973 5.71781829 2.86940619 6.5625 4.3125 C7.03816406 5.11300781 7.51382812 5.91351563 8.00390625 6.73828125 C9 9 9 9 8 12 C7.67386719 11.4225 7.34773438 10.845 7.01171875 10.25 C6.57472656 9.5075 6.13773437 8.765 5.6875 8 C5.04361328 6.88625 5.04361328 6.88625 4.38671875 5.75 C3.92910156 5.1725 3.47148437 4.595 3 4 C2.01 4 1.02 4 0 4 C0.33 4.99 0.66 5.98 1 7 C-0.19485397 10.18627725 -1.5009557 11.5009557 -4 14 C-3.34 10.37 -2.68 6.74 -2 3 C-1.34 3 -0.68 3 0 3 C0 2.01 0 1.02 0 0 Z " fill="#08569E" transform="translate(348,349)"/>
<path d="M0 0 C0 0.66 0 1.32 0 2 C-2.8933122 2.70004335 -5.78883001 3.3853242 -8.6875 4.0625 C-9.91243164 4.36124023 -9.91243164 4.36124023 -11.16210938 4.66601562 C-15.41009212 5.64631933 -18.72564505 6.38415975 -23 5 C-19.64414347 2.76276232 -17.11888374 2.20398187 -13.1875 1.375 C-11.98480469 1.11460937 -10.78210938 0.85421875 -9.54296875 0.5859375 C-6.27837314 0.04603745 -3.2995537 -0.11116414 0 0 Z " fill="#14233C" transform="translate(435,203)"/>
<path d="M0 0 C5.4077115 -0.02485162 10.81538921 -0.04293147 16.22314453 -0.05493164 C18.06006449 -0.05993819 19.89698051 -0.0667454 21.73388672 -0.07543945 C24.38510108 -0.08766697 27.03626243 -0.09326523 29.6875 -0.09765625 C30.90518066 -0.10539818 30.90518066 -0.10539818 32.14746094 -0.11329651 C37.18734589 -0.11378442 42.01064333 0.27903796 47 1 C47 1.33 47 1.66 47 2 C43.7 2.33 40.4 2.66 37 3 C37 2.34 37 1.68 37 1 C24.79 1 12.58 1 0 1 C0 0.67 0 0.34 0 0 Z " fill="#0676CC" transform="translate(154,145)"/>
<path d="M0 0 C8.97858594 4.09201041 17.29494845 13.08314386 23 21 C22.67 21.66 22.34 22.32 22 23 C19.04470947 20.13426373 16.2922467 17.19937479 13.625 14.0625 C10.82837737 10.82623364 7.8902939 8.02502938 4.578125 5.32421875 C2.95161946 3.95940346 1.44603103 2.55491891 0 1 C0 0.67 0 0.34 0 0 Z " fill="#0F1B30" transform="translate(233,223)"/>
<path d="M0 0 C6.93 0 13.86 0 21 0 C21 0.66 21 1.32 21 2 C13.81949816 2.71148265 7.12971149 3.25818438 0 2 C0 1.34 0 0.68 0 0 Z " fill="#151419" transform="translate(435,469)"/>
<path d="M0 0 C1.47906892 -0.02689216 2.95827483 -0.04634621 4.4375 -0.0625 C5.26121094 -0.07410156 6.08492187 -0.08570313 6.93359375 -0.09765625 C9 0 9 0 10 1 C10.37619454 6.89371452 9.29283945 12.26302493 8 18 C7.01 18 6.02 18 5 18 C5.13277344 17.35933594 5.26554688 16.71867187 5.40234375 16.05859375 C6.42493006 11.05016007 7.33884147 6.06888206 8 1 C5.36 1 2.72 1 0 1 C0 0.67 0 0.34 0 0 Z " fill="#14243F" transform="translate(595,332)"/>
<path d="M0 0 C1.423125 0.2784375 1.423125 0.2784375 2.875 0.5625 C5.89868793 1.28686632 5.89868793 1.28686632 8 0 C9.54023996 -0.06950541 11.08334988 -0.08452357 12.625 -0.0625 C13.85089844 -0.04896484 13.85089844 -0.04896484 15.1015625 -0.03515625 C16.04128906 -0.01775391 16.04128906 -0.01775391 17 0 C17 0.33 17 0.66 17 1 C19.97 1.33 22.94 1.66 26 2 C26 2.33 26 2.66 26 3 C21.70903831 3.22509088 17.41730127 3.42723952 13.125 3.625 C11.90167969 3.68945312 10.67835938 3.75390625 9.41796875 3.8203125 C7.66806641 3.89765625 7.66806641 3.89765625 5.8828125 3.9765625 C4.26463623 4.05511475 4.26463623 4.05511475 2.61376953 4.13525391 C0 4 0 4 -2 2 C-1.34 2 -0.68 2 0 2 C0 1.34 0 0.68 0 0 Z " fill="#067ED3" transform="translate(426,200)"/>
<path d="M0 0 C3.59757585 1.54895627 6.12532462 3.73695948 9 6.375 C9.845625 7.14585937 10.69125 7.91671875 11.5625 8.7109375 C13.75248722 10.76756012 15.89052389 12.86122561 18 15 C16.68 15.33 15.36 15.66 14 16 C13.7525 15.360625 13.505 14.72125 13.25 14.0625 C12.8375 13.381875 12.425 12.70125 12 12 C11.34 11.855625 10.68 11.71125 10 11.5625 C9.34 11.376875 8.68 11.19125 8 11 C7.71125 10.236875 7.4225 9.47375 7.125 8.6875 C5.60883628 5.06555334 3.25512006 4.05214091 0 2 C0 1.34 0 0.68 0 0 Z " fill="#0C9FEA" transform="translate(543,178)"/>
<path d="M0 0 C-0.33 2.31 -0.66 4.62 -1 7 C-1.66 7 -2.32 7 -3 7 C-3.17015625 7.62648438 -3.3403125 8.25296875 -3.515625 8.8984375 C-3.75796875 9.71570313 -4.0003125 10.53296875 -4.25 11.375 C-4.48203125 12.18710937 -4.7140625 12.99921875 -4.953125 13.8359375 C-6.2214892 16.45785454 -7.32423308 16.99382318 -10 18 C-9.33333333 16.33333333 -8.66666667 14.66666667 -8 13 C-7.5978125 11.98421875 -7.195625 10.9684375 -6.78125 9.921875 C-6.3584375 8.87515625 -5.935625 7.8284375 -5.5 6.75 C-5.0771875 5.69296875 -4.654375 4.6359375 -4.21875 3.546875 C-2.52147239 0 -2.52147239 0 0 0 Z " fill="#077BC6" transform="translate(540,345)"/>
<path d="M0 0 C1.58624235 0.42683239 3.1689098 0.86696158 4.75 1.3125 C6.07257812 1.67794922 6.07257812 1.67794922 7.421875 2.05078125 C10.08669915 3.03192105 11.90271638 4.093824 14 6 C14 6.66 14 7.32 14 8 C11 9 11 9 9.2109375 8.29296875 C8.60507812 7.92816406 7.99921875 7.56335938 7.375 7.1875 C6.76398437 6.83042969 6.15296875 6.47335938 5.5234375 6.10546875 C4 5 4 5 3 3 C2.01 2.67 1.02 2.34 0 2 C0 1.34 0 0.68 0 0 Z " fill="#0C7DBC" transform="translate(523,165)"/>
<path d="M0 0 C3.82564684 3.36898179 5.93143538 7.1099972 8.25 11.5625 C8.61351562 12.23474609 8.97703125 12.90699219 9.3515625 13.59960938 C12 18.61272321 12 18.61272321 12 22 C11.34 22 10.68 22 10 22 C9.69707031 21.2265625 9.39414062 20.453125 9.08203125 19.65625 C6.77744334 13.92668989 4.41571717 8.62476904 0.91796875 3.5234375 C0 2 0 2 0 0 Z " fill="#101623" transform="translate(527,246)"/>
<path d="M0 0 C0 0.33 0 0.66 0 1 C-6.72261029 1.12928097 -13.30848649 0.61973967 -20 0 C-21.06089844 -0.09539062 -22.12179687 -0.19078125 -23.21484375 -0.2890625 C-25.81019977 -0.52287836 -28.40521617 -0.75993142 -31 -1 C-31 -1.33 -31 -1.66 -31 -2 C-20.00751159 -3.19891792 -10.75243832 -2.7344563 0 0 Z " fill="#049DF2" transform="translate(467,203)"/>
<path d="M0 0 C-3.07150755 2.55227651 -5.98525624 3.88776704 -9.75 5.1875 C-10.73484375 5.53167969 -11.7196875 5.87585938 -12.734375 6.23046875 C-13.48203125 6.48441406 -14.2296875 6.73835937 -15 7 C-15 6.01 -15 5.02 -15 4 C-9.77228537 0.95842058 -6.07328688 -0.50610724 0 0 Z " fill="#057CD3" transform="translate(126,152)"/>
<path d="M0 0 C0.33 0 0.66 0 1 0 C1.47090426 5.80781921 0.25202895 11.6472297 -2 17 C-4.109375 18.83203125 -4.109375 18.83203125 -6 20 C-4.38808348 13.14078075 -2.64031672 6.53792711 0 0 Z " fill="#0F213D" transform="translate(281,246)"/>
<path d="M0 0 C0.33 0.66 0.66 1.32 1 2 C2.299375 2.433125 2.299375 2.433125 3.625 2.875 C8.70476143 4.56825381 13.42800233 6.89220268 17 11 C17.556875 11.556875 18.11375 12.11375 18.6875 12.6875 C19.120625 13.120625 19.55375 13.55375 20 14 C15.95021162 14 13.77677406 11.97679535 10.625 9.6875 C6.83139327 6.97221299 3.04208347 4.33895841 -1 2 C-0.67 1.34 -0.34 0.68 0 0 Z " fill="#07A0E9" transform="translate(490,211)"/>
<path d="M0 0 C-0.33 0.99 -0.66 1.98 -1 3 C-4.0625 4.1875 -4.0625 4.1875 -7 5 C-7 5.66 -7 6.32 -7 7 C-10.46153846 10 -10.46153846 10 -13 10 C-10.51279481 4.19652122 -6.49053157 0 0 0 Z " fill="#0490E1" transform="translate(355,174)"/>
<path d="M0 0 C0.33 0 0.66 0 1 0 C1.33820166 1.5823006 1.67035939 3.16589375 2 4.75 C2.185625 5.63171875 2.37125 6.5134375 2.5625 7.421875 C3 10 3 10 3 14 C-3.93 13.505 -3.93 13.505 -11 13 C-11 12.67 -11 12.34 -11 12 C-5.555 11.505 -5.555 11.505 0 11 C0 7.37 0 3.74 0 0 Z " fill="#0B89DF" transform="translate(600,262)"/>
<path d="M0 0 C0.66 0.99 1.32 1.98 2 3 C-4.07792208 9.24675325 -4.07792208 9.24675325 -7 11 C-7.99 10.67 -8.98 10.34 -10 10 C-6.7 6.7 -3.4 3.4 0 0 Z " fill="#131821" transform="translate(560,419)"/>
<path d="M0 0 C0 0.33 0 0.66 0 1 C-0.78246094 1.12117187 -1.56492188 1.24234375 -2.37109375 1.3671875 C-3.88896484 1.61855469 -3.88896484 1.61855469 -5.4375 1.875 C-6.44683594 2.03742188 -7.45617187 2.19984375 -8.49609375 2.3671875 C-9.32238281 2.57601562 -10.14867187 2.78484375 -11 3 C-11.33 3.66 -11.66 4.32 -12 5 C-15.3 4.67 -18.6 4.34 -22 4 C-15.1272126 0.5636063 -7.63646554 -0.33939847 0 0 Z " fill="#045DAA" transform="translate(152,146)"/>
<path d="M0 0 C-3.69308976 1.23102992 -6.88050712 0.87175152 -10.6875 0.5625 C-11.7403418 0.48418945 -11.7403418 0.48418945 -12.81445312 0.40429688 C-14.54338054 0.27492135 -16.27175355 0.13817469 -18 0 C-18 -0.66 -18 -1.32 -18 -2 C-12.06342522 -3.97885826 -5.70918814 -2.19584159 0 0 Z " fill="#055DA2" transform="translate(218,150)"/>
<path d="M0 0 C3.80133442 1.67923025 6.97082702 4.11462834 10.25 6.625 C10.80429688 7.04523438 11.35859375 7.46546875 11.9296875 7.8984375 C13.28866663 8.92938719 14.64463835 9.96429911 16 11 C14 12 14 12 10 12 C8.62464661 10.02866014 7.29788956 8.02318078 6 6 C4.08096354 4.21331089 2.05444973 2.63422138 0 1 C0 0.67 0 0.34 0 0 Z " fill="#0B2253" transform="translate(105,382)"/>
<path d="M0 0 C0.33 1.32 0.66 2.64 1 4 C-0.43359375 5.921875 -0.43359375 5.921875 -2.4375 7.75 C-3.09621094 8.36359375 -3.75492187 8.9771875 -4.43359375 9.609375 C-5.20896484 10.29773438 -5.20896484 10.29773438 -6 11 C-6.66 10.01 -7.32 9.02 -8 8 C-5.36 5.36 -2.72 2.72 0 0 Z " fill="#142032" transform="translate(294,418)"/>
<path d="M0 0 C-1.36370299 2.99220268 -2.94908083 5.29026529 -5.125 7.75 C-5.93324219 8.67039063 -5.93324219 8.67039063 -6.7578125 9.609375 C-7.16773438 10.06828125 -7.57765625 10.5271875 -8 11 C-8.99 10.34 -9.98 9.68 -11 9 C-9.54782324 7.49403892 -8.08807139 5.99537896 -6.625 4.5 C-5.40683594 3.24703125 -5.40683594 3.24703125 -4.1640625 1.96875 C-2 0 -2 0 0 0 Z " fill="#151826" transform="translate(379,228)"/>
<path d="M0 0 C0.66 0.33 1.32 0.66 2 1 C-0.89217759 5.69978858 -0.89217759 5.69978858 -4.046875 6.5546875 C-6.02330745 6.78597215 -8.01256369 6.90062818 -10 7 C-8.68 6.34 -7.36 5.68 -6 5 C-6 4.34 -6 3.68 -6 3 C-4.03533587 1.93224776 -2.03144641 0.93446535 0 0 Z " fill="#0354B1" transform="translate(235,392)"/>
<path d="M0 0 C0.33 0 0.66 0 1 0 C1.02694851 1.95825873 1.04637218 3.91662226 1.0625 5.875 C1.07410156 6.96554687 1.08570313 8.05609375 1.09765625 9.1796875 C1 12 1 12 0 14 C-0.66 14 -1.32 14 -2 14 C-2.33 14.99 -2.66 15.98 -3 17 C-2.36934845 11.2190275 -1.34844868 5.6556294 0 0 Z " fill="#03479E" transform="translate(16,258)"/>
<path d="M0 0 C0.66 0.33 1.32 0.66 2 1 C-0.31883213 5.50884026 -3.06451569 7.93906776 -7 11 C-6.58485103 6.1565954 -4.53791301 4.18412171 -1 1 C-0.67 0.67 -0.34 0.34 0 0 Z " fill="#035FAE" transform="translate(62,185)"/>
<path d="M0 0 C3.33771952 2.45937228 5.25543014 4.27825097 7 8 C8.29470975 9.37086915 9.62150897 10.71340837 11 12 C10.67 12.66 10.34 13.32 10 14 C8.69979989 12.61211198 7.4101807 11.21430742 6.125 9.8125 C5.40570313 9.03519531 4.68640625 8.25789063 3.9453125 7.45703125 C2.0182908 5.02310224 0.98699889 2.92463354 0 0 Z " fill="#121A2E" transform="translate(357,361)"/>
<path d="M0 0 C0.66 1.32 1.32 2.64 2 4 C-1.28804981 6.91227269 -3.59885603 8.49701212 -8 9 C-6.8553125 7.88625 -6.8553125 7.88625 -5.6875 6.75 C-3.5606298 4.5736677 -1.7440044 2.47832204 0 0 Z " fill="#0458B2" transform="translate(258,372)"/>
<path d="M0 0 C0.33 0.66 0.66 1.32 1 2 C-0.92333011 6.06036357 -3.40069448 8.37347975 -7 11 C-7.33 10.34 -7.66 9.68 -8 9 C-7.566875 8.608125 -7.13375 8.21625 -6.6875 7.8125 C-4.86417371 5.98203003 -4.86417371 5.98203003 -3.4375 3.375 C-2 1 -2 1 0 0 Z " fill="#045BBE" transform="translate(267,361)"/>
<path d="M0 0 C0.99 0.495 0.99 0.495 2 1 C2.6875 4 2.6875 4 3 7 C2.67 7.33 2.34 7.66 2 8 C1.76712992 9.68183948 1.58735834 11.3712416 1.4375 13.0625 C1.35371094 13.98160156 1.26992187 14.90070313 1.18359375 15.84765625 C1.12300781 16.55792969 1.06242188 17.26820313 1 18 C0.67 18 0.34 18 0 18 C0 12.06 0 6.12 0 0 Z " fill="#023CA1" transform="translate(11,310)"/>
<path d="M0 0 C0.66 0 1.32 0 2 0 C2 0.66 2 1.32 2 2 C2.66 2 3.32 2 4 2 C5.23076923 7.41538462 5.23076923 7.41538462 4.0625 10.375 C3.711875 10.91125 3.36125 11.4475 3 12 C1.19682779 8.03302114 0.50797009 4.3177458 0 0 Z " fill="#0F66A3" transform="translate(538,264)"/>
<path d="M0 0 C3.88975419 3.59054233 6.89732195 7.73898882 10 12 C9.67 12.66 9.34 13.32 9 14 C7.4911599 12.23669281 5.9931702 10.46409603 4.5 8.6875 C3.6646875 7.70136719 2.829375 6.71523437 1.96875 5.69921875 C0 3 0 3 0 0 Z " fill="#101330" transform="translate(567,197)"/>
<path d="M0 0 C4.0369867 1.79421631 6.64480474 3.20551875 9 7 C8.67 7.66 8.34 8.32 8 9 C5.96166576 7.7260411 3.96147874 6.38938077 2 5 C2 4.34 2 3.68 2 3 C1.34 3 0.68 3 0 3 C0 2.01 0 1.02 0 0 Z " fill="#085FA0" transform="translate(291,197)"/>
<path d="M0 0 C0.99 0.33 1.98 0.66 3 1 C2.67 2.65 2.34 4.3 2 6 C1.01 6.33 0.02 6.66 -1 7 C-1.73323796 9.01508358 -1.73323796 9.01508358 -2 11 C-3 9 -3 9 -2.44140625 6.8359375 C-2.15136719 6.02382812 -1.86132812 5.21171875 -1.5625 4.375 C-1.27503906 3.55773437 -0.98757812 2.74046875 -0.69140625 1.8984375 C-0.46324219 1.27195313 -0.23507813 0.64546875 0 0 Z " fill="#0453AF" transform="translate(22,241)"/>
<path d="M0 0 C4.59306496 1.4859916 7.43569245 3.85014682 11 7 C7.80389448 7 6.58282374 6.45328458 3.8125 5 C3.09707031 4.62875 2.38164062 4.2575 1.64453125 3.875 C1.10183594 3.58625 0.55914062 3.2975 0 3 C0 2.01 0 1.02 0 0 Z " fill="#084B7F" transform="translate(265,173)"/>
<path d="M0 0 C0.66 0 1.32 0 2 0 C1.45660208 4.56454251 0.20536179 7.9728176 -2 12 C-2.33 12 -2.66 12 -3 12 C-2.49202991 7.6822542 -1.80317221 3.96697886 0 0 Z " fill="#131A2B" transform="translate(285,237)"/>
<path d="M0 0 C0.66 0 1.32 0 2 0 C2.86646667 1.43011973 3.71781829 2.86940619 4.5625 4.3125 C5.03816406 5.11300781 5.51382812 5.91351563 6.00390625 6.73828125 C7 9 7 9 6 12 C4.99466333 10.37829621 3.99588093 8.75252763 3 7.125 C2.443125 6.22007812 1.88625 5.31515625 1.3125 4.3828125 C0 2 0 2 0 0 Z " fill="#11192B" transform="translate(350,349)"/>
<path d="M0 0 C0.66 0 1.32 0 2 0 C0.68448876 4.60428934 -1.09196486 8.18320388 -4 12 C-4.66 12 -5.32 12 -6 12 C-6 11.34 -6 10.68 -6 10 C-5.34 10 -4.68 10 -4 10 C-3.34 7.69 -2.68 5.38 -2 3 C-1.34 3 -0.68 3 0 3 C0 2.01 0 1.02 0 0 Z " fill="#0492ED" transform="translate(294,216)"/>
<path d="M0 0 C-4.36200187 2.44697666 -8.02693484 3.50269348 -13 4 C-13.33 3.34 -13.66 2.68 -14 2 C-12.42085985 1.46658816 -10.83645613 0.94874237 -9.25 0.4375 C-8.36828125 0.14746094 -7.4865625 -0.14257812 -6.578125 -0.44140625 C-3.92165684 -1.01697435 -2.52968894 -0.89248371 0 0 Z " fill="#0E2747" transform="translate(155,205)"/>
<path d="M0 0 C5.52706913 0.72724594 10.69960141 2.33445973 16 4 C13 5 13 5 9 5 C9 4.34 9 3.68 9 3 C8.38125 3.185625 7.7625 3.37125 7.125 3.5625 C5 4 5 4 3 3 C3 2.34 3 1.68 3 1 C2.01 0.67 1.02 0.34 0 0 Z " fill="#074D84" transform="translate(486,149)"/>
<path d="M0 0 C1.12894876 0.93274109 2.25300876 1.87140122 3.375 2.8125 C4.00148438 3.33457031 4.62796875 3.85664063 5.2734375 4.39453125 C7 6 7 6 9 9 C6.66471585 8.82701599 5.30822418 8.29774631 3.62109375 6.66796875 C0 2.42788462 0 2.42788462 0 0 Z " fill="#111F36" transform="translate(319,411)"/>
<path d="M0 0 C0.33 0 0.66 0 1 0 C1 1.98 1 3.96 1 6 C1.66 6.33 2.32 6.66 3 7 C2.34 8.65 1.68 10.3 1 12 C0.34 11.34 -0.32 10.68 -1 10 C-0.9765625 7.6171875 -0.9765625 7.6171875 -0.625 4.875 C-0.51414062 3.96492188 -0.40328125 3.05484375 -0.2890625 2.1171875 C-0.19367188 1.41851562 -0.09828125 0.71984375 0 0 Z " fill="#0452A9" transform="translate(280,324)"/>
<path d="M0 0 C1.305239 3.91571701 0.32239848 5.03892997 -1.4375 8.6875 C-1.91058594 9.68136719 -2.38367188 10.67523438 -2.87109375 11.69921875 C-3.42990234 12.83810547 -3.42990234 12.83810547 -4 14 C-5.43737869 11.12524262 -4.52819784 9.49349643 -3.6875 6.4375 C-3.42324219 5.44621094 -3.15898437 4.45492188 -2.88671875 3.43359375 C-2 1 -2 1 0 0 Z " fill="#0386EC" transform="translate(351,259)"/>
<path d="M0 0 C3.96 0.33 7.92 0.66 12 1 C8.38863788 2.80568106 7.455469 3.24851563 3.75 3.125 C1.89375 3.063125 1.89375 3.063125 0 3 C0 2.01 0 1.02 0 0 Z " fill="#015FE4" transform="translate(168,410)"/>
<path d="M0 0 C0.66 0.99 1.32 1.98 2 3 C0.35 4.65 -1.3 6.3 -3 8 C-3.99 7.67 -4.98 7.34 -6 7 C-4.02 4.69 -2.04 2.38 0 0 Z " fill="#0674B8" transform="translate(524,370)"/>
<path d="M0 0 C1.32 0.99 2.64 1.98 4 3 C3.67 4.65 3.34 6.3 3 8 C2.01 8 1.02 8 0 8 C0 5.36 0 2.72 0 0 Z " fill="#0594EC" transform="translate(297,204)"/>
<path d="M0 0 C-2.87136623 2.87136623 -6.11009282 2.8308736 -10 3 C-12.5 2.5625 -12.5 2.5625 -14 2 C-9.07262981 0.02905192 -5.21979128 -0.1799928 0 0 Z " fill="#07A5F3" transform="translate(420,148)"/>
<path d="M0 0 C1.65 0 3.3 0 5 0 C5 0.66 5 1.32 5 2 C6.65 2.33 8.3 2.66 10 3 C10 3.66 10 4.32 10 5 C6.7 4.01 3.4 3.02 0 2 C0 1.34 0 0.68 0 0 Z " fill="#0684DF" transform="translate(204,206)"/>
<path d="M0 0 C0.66 0.33 1.32 0.66 2 1 C1.67 1.99 1.34 2.98 1 4 C-1.97 4 -4.94 4 -8 4 C-6.68 3.34 -5.36 2.68 -4 2 C-3.29875 1.608125 -2.5975 1.21625 -1.875 0.8125 C-1.25625 0.544375 -0.6375 0.27625 0 0 Z " fill="#05479A" transform="translate(215,402)"/>
<path d="M0 0 C4.2742558 1.5830577 6.26531794 4.50568404 9 8 C6.1875 7.375 6.1875 7.375 3 6 C1.125 2.875 1.125 2.875 0 0 Z " fill="#0B457D" transform="translate(369,377)"/>
<path d="M0 0 C0.66 0.33 1.32 0.66 2 1 C0.35 3.64 -1.3 6.28 -3 9 C-3.66 8.01 -4.32 7.02 -5 6 C-4.34 6 -3.68 6 -3 6 C-3 4.68 -3 3.36 -3 2 C-2.01 1.34 -1.02 0.68 0 0 Z " fill="#0483E6" transform="translate(358,247)"/>
<path d="M0 0 C0.99 0.33 1.98 0.66 3 1 C1.68 2.65 0.36 4.3 -1 6 C-1.99 5.67 -2.98 5.34 -4 5 C-2.68 3.35 -1.36 1.7 0 0 Z " fill="#162335" transform="translate(367,238)"/>
<path d="M0 0 C3.78383679 0.92493788 5.56693694 1.39371171 7.875 4.625 C8.431875 5.800625 8.431875 5.800625 9 7 C6 7 6 7 4.39453125 5.46875 C3.87246094 4.8190625 3.35039062 4.169375 2.8125 3.5 C2.28269531 2.8503125 1.75289062 2.200625 1.20703125 1.53125 C0.80871094 1.0259375 0.41039062 0.520625 0 0 Z " fill="#0885E5" transform="translate(241,228)"/>
<path d="M0 0 C-0.99 0.33 -1.98 0.66 -3 1 C-3.33 1.99 -3.66 2.98 -4 4 C-5.65 3.67 -7.3 3.34 -9 3 C-9 2.34 -9 1.68 -9 1 C-2.25 -1.125 -2.25 -1.125 0 0 Z " fill="#0F223A" transform="translate(497,461)"/>
<path d="M0 0 C0.99 0.66 1.98 1.32 3 2 C1.5437455 2.67119549 0.08492133 3.33681807 -1.375 4 C-2.59316406 4.556875 -2.59316406 4.556875 -3.8359375 5.125 C-6 6 -6 6 -8 6 C-8 5.34 -8 4.68 -8 4 C-5.36 2.68 -2.72 1.36 0 0 Z " fill="#0356D1" transform="translate(238,454)"/>
<path d="M0 0 C0.66 0.33 1.32 0.66 2 1 C0.8125 3 0.8125 3 -1 5 C-3.6875 5.25 -3.6875 5.25 -6 5 C-4.00856305 2.01284458 -3.23356015 1.21258505 0 0 Z " fill="#0564A6" transform="translate(500,392)"/>
<path d="M0 0 C0.99 0.33 1.98 0.66 3 1 C3.33 4.3 3.66 7.6 4 11 C1.73030256 8.73030256 1.00868171 7.02604513 0 4 C0 2.68 0 1.36 0 0 Z " fill="#034FD5" transform="translate(20,356)"/>
<path d="M0 0 C0.99 1.32 1.98 2.64 3 4 C2.360625 4.268125 1.72125 4.53625 1.0625 4.8125 C-1.33131686 5.88667752 -1.33131686 5.88667752 -2 9 C-1.125 1.125 -1.125 1.125 0 0 Z " fill="#066CB1" transform="translate(542,333)"/>
<path d="M0 0 C3.33557632 2.9905167 5.15083921 5.93184627 7 10 C3.78634109 8.89184175 3.0085776 8.01470446 1.25 5 C0 2 0 2 0 0 Z " fill="#142134" transform="translate(527,246)"/>
<path d="M0 0 C1.21386936 3.64160808 0.6674695 4.33165469 -0.9375 7.6875 C-1.31777344 8.49574219 -1.69804687 9.30398437 -2.08984375 10.13671875 C-2.39019531 10.75160156 -2.69054687 11.36648437 -3 12 C-4.12668965 8.61993106 -3.89636912 8.0359269 -2.625 4.875 C-2.34914063 4.17117187 -2.07328125 3.46734375 -1.7890625 2.7421875 C-1 1 -1 1 0 0 Z " fill="#0789ED" transform="translate(283,239)"/>
<path d="M0 0 C-0.33 0.99 -0.66 1.98 -1 3 C-3.5625 4.1875 -3.5625 4.1875 -6 5 C-6.66 4.34 -7.32 3.68 -8 3 C-4.93882432 0.37613513 -4.26826873 0 0 0 Z " fill="#0385D5" transform="translate(355,174)"/>
<path d="M0 0 C0.33 0.66 0.66 1.32 1 2 C-3.455 3.485 -3.455 3.485 -8 5 C-8 4.01 -8 3.02 -8 2 C-5.36 1.34 -2.72 0.68 0 0 Z " fill="#059AED" transform="translate(387,156)"/>
<path d="M0 0 C6.75 0.75 6.75 0.75 9 3 C6.08517222 3.80967438 4.53886783 4.21845993 1.6875 3.0625 C1.130625 2.711875 0.57375 2.36125 0 2 C0 1.34 0 0.68 0 0 Z " fill="#12141E" transform="translate(392,461)"/>
<path d="M0 0 C-1.98 1.32 -3.96 2.64 -6 4 C-6 2.68 -6 1.36 -6 0 C-3.50907189 -1.24546405 -2.58919267 -0.7767578 0 0 Z " fill="#161922" transform="translate(527,449)"/>
<path d="M0 0 C0.99 0.33 1.98 0.66 3 1 C0.06171403 3.50298434 -2.17902761 4.46930939 -6 5 C-2.25 1.125 -2.25 1.125 0 0 Z " fill="#0E152D" transform="translate(129,212)"/>
<path d="M0 0 C6.93 0.495 6.93 0.495 14 1 C14 1.33 14 1.66 14 2 C10.7 2.33 7.4 2.66 4 3 C4 2.34 4 1.68 4 1 C2.68 0.67 1.36 0.34 0 0 Z " fill="#07488D" transform="translate(187,145)"/>
<path d="M0 0 C0.93065133 2.60582371 1.14917407 3.64198224 0.0625 6.25 C-0.4634375 7.11625 -0.4634375 7.11625 -1 8 C-1.99 8 -2.98 8 -4 8 C-2.66666667 5.33333333 -1.33333333 2.66666667 0 0 Z " fill="#036CB9" transform="translate(310,216)"/>
</svg>
